<?xml version="1.0" standalone="no"?>
<!DOCTYPE svg PUBLIC "-//W3C//DTD SVG 20010904//EN"
 "http://www.w3.org/TR/2001/REC-SVG-20010904/DTD/svg10.dtd">
<svg version="1.0" xmlns="http://www.w3.org/2000/svg"
 width="531.000000pt" height="167.000000pt" viewBox="0 0 531.000000 167.000000"
 preserveAspectRatio="xMidYMid meet">

<g transform="translate(0.000000,167.000000) scale(0.100000,-0.100000)"
fill="#000000" stroke="none">
<path d="M4394 1482 c-357 -286 -589 -662 -659 -1066 -15 -91 -20 -198 -9
-209 4 -3 39 20 78 52 181 149 397 241 690 293 95 16 164 21 321 22 110 1 229
-1 265 -4 l65 -5 3 148 3 147 -85 0 c-47 0 -138 -7 -203 -15 -371 -49 -680
-184 -938 -411 -95 -84 -87 -58 12 37 168 161 353 275 606 374 107 41 291 96
368 109 19 4 44 13 55 21 22 16 33 18 -111 -15 -396 -92 -761 -288 -961 -517
-87 -99 -117 -141 -111 -157 3 -8 -6 -24 -20 -37 -24 -22 -25 -22 -18 -4 4 11
10 30 12 43 3 12 9 25 14 28 5 3 9 10 9 15 0 6 -5 7 -11 3 -19 -11 -2 32 66
171 139 285 391 542 738 755 50 31 93 62 95 69 3 9 0 11 -8 6 -8 -5 -11 -4 -6
3 7 12 -131 213 -150 219 -6 2 -56 -32 -110 -75z"/>
<path d="M3702 1234 c-12 -8 -20 -20 -16 -25 3 -5 0 -8 -7 -7 -22 5 -40 -44
-36 -96 4 -42 10 -55 41 -83 30 -28 43 -33 85 -33 54 0 91 22 116 70 31 59 9
141 -44 173 -36 21 -109 22 -139 1z"/>
<path d="M4840 1240 c-8 -5 -10 -10 -5 -10 6 0 17 5 25 10 8 5 11 10 5 10 -5
0 -17 -5 -25 -10z"/>
<path d="M4891 1235 c1 -19 18 -51 18 -35 0 8 -4 22 -9 30 -5 8 -9 11 -9 5z"/>
<path d="M4911 1170 c0 -8 6 -28 14 -45 17 -39 18 -21 0 25 -7 19 -14 28 -14
20z"/>
<path d="M4624 1154 c-18 -14 -18 -14 6 -3 31 14 36 19 24 19 -6 0 -19 -7 -30
-16z"/>
<path d="M4570 1130 c-9 -6 -10 -10 -3 -10 6 0 15 5 18 10 8 12 4 12 -15 0z"/>
<path d="M4524 1104 c-18 -14 -18 -15 4 -4 12 6 22 13 22 15 0 8 -5 6 -26 -11z"/>
<path d="M2467 1076 c-28 -42 -22 -58 17 -55 44 4 53 -4 34 -33 -12 -18 -14
-35 -7 -73 4 -28 8 -101 8 -163 1 -86 4 -113 14 -110 28 10 37 54 37 190 0 75
-4 148 -10 162 -8 22 -6 27 18 38 30 15 40 66 12 59 -25 -6 -54 -5 -81 3 -21
6 -29 3 -42 -18z"/>
<path d="M4942 1080 c0 -8 6 -31 13 -50 7 -19 13 -28 13 -20 0 8 -6 31 -13 50
-7 19 -13 28 -13 20z"/>
<path d="M647 1002 c-14 -15 -15 -37 -8 -171 7 -146 9 -155 32 -174 20 -17 34
-19 96 -14 39 3 80 10 91 16 14 8 29 8 47 1 38 -14 81 -12 95 5 6 8 14 32 17
53 5 35 1 43 -29 73 -19 19 -55 49 -80 66 -51 36 -65 31 -72 -25 -3 -17 -9
-39 -15 -50 -6 -12 -11 -29 -11 -40 0 -15 -9 -21 -42 -26 -66 -11 -78 10 -78
139 0 106 -7 165 -20 165 -4 0 -14 -8 -23 -18z m255 -247 c-6 -32 -19 -39 -32
-16 -13 25 -5 43 18 39 11 -2 16 -11 14 -23z m72 -31 c9 -24 0 -29 -19 -11
-19 19 -19 27 -1 27 8 0 17 -7 20 -16z"/>
<path d="M4330 991 c-25 -16 -65 -47 -90 -70 l-45 -42 55 43 c30 24 72 54 93
66 20 13 37 26 37 28 0 6 -2 5 -50 -25z"/>
<path d="M3215 951 c-44 -27 -67 -56 -64 -83 1 -13 -1 -38 -5 -56 -12 -52 3
-62 100 -62 84 0 134 -11 134 -30 0 -11 -146 -14 -254 -3 -64 6 -70 8 -88 40
-11 18 -23 33 -27 33 -4 0 -13 -16 -20 -35 -11 -32 -10 -38 13 -67 22 -29 23
-34 11 -59 -8 -15 -37 -43 -65 -64 -27 -20 -50 -40 -50 -45 0 -12 64 -32 82
-25 21 8 57 60 72 103 l13 37 166 5 c107 3 170 9 178 17 6 6 13 31 16 55 4 37
1 47 -22 70 -27 27 -57 35 -155 41 l-45 2 47 24 c43 22 57 42 58 80 0 9 -7 11
-24 7 -20 -5 -23 -3 -19 14 7 25 -12 26 -52 1z"/>
<path d="M1762 928 c-6 -6 -12 -19 -12 -27 0 -8 -8 -23 -17 -33 -16 -18 -16
-20 4 -39 17 -18 23 -19 41 -8 17 11 23 10 37 -1 15 -13 20 -11 36 9 18 22 19
25 3 42 -10 11 -22 29 -28 42 -13 25 -46 33 -64 15z"/>
<path d="M1975 890 c-10 -11 -14 -20 -9 -20 5 0 3 -4 -5 -9 -11 -7 -8 -12 12
-26 28 -18 41 -15 57 14 7 14 4 23 -14 40 l-23 21 -18 -20z"/>
<path d="M4109 809 l-74 -71 78 68 c42 38 77 70 77 71 0 8 -12 -2 -81 -68z"/>
<path d="M2640 813 c-29 -63 -40 -113 -28 -138 22 -48 113 -41 137 11 21 46
14 83 -23 120 -41 41 -68 43 -86 7z m65 -73 c18 -20 17 -20 -12 -20 -35 0 -44
7 -36 26 7 20 27 17 48 -6z"/>
<path d="M427 812 c-22 -24 -21 -35 4 -58 20 -18 21 -18 40 6 22 29 20 38 -7
57 -18 11 -23 11 -37 -5z"/>
<path d="M1299 809 c-6 -12 -9 -37 -6 -55 6 -37 9 -35 -70 -38 -57 -2 -79 7
-98 43 -20 40 -31 39 -45 -5 -11 -32 -10 -39 9 -65 11 -15 21 -35 21 -42 0
-16 -74 -88 -109 -107 -28 -15 -14 -35 31 -44 25 -5 37 -1 56 16 27 26 62 89
62 113 0 12 14 15 71 15 65 0 73 2 100 29 33 34 39 83 14 131 -18 36 -21 36
-36 9z"/>
<path d="M1869 809 c-6 -12 -8 -36 -4 -56 6 -32 4 -34 -17 -31 -12 2 -28 13
-34 26 -18 35 -22 36 -39 3 -19 -37 -42 -40 -55 -7 -14 38 -29 41 -41 8 l-10
-30 -114 -3 c-96 -4 -116 -7 -135 -24 -50 -45 -67 -125 -31 -145 11 -5 77 -10
146 -10 69 0 135 -5 146 -10 16 -9 21 -7 30 17 9 24 7 30 -11 45 -19 15 -43
18 -151 18 -118 0 -155 8 -113 24 9 3 64 6 123 6 67 0 111 4 118 11 9 9 20 9
43 -1 25 -10 36 -10 54 0 18 9 29 9 45 0 68 -36 128 70 86 150 -18 36 -21 36
-36 9z"/>
<path d="M2843 805 c-27 -19 -56 -91 -47 -119 9 -28 22 -36 62 -36 17 0 32 -4
32 -10 0 -9 -74 -71 -116 -97 -17 -10 -16 -13 19 -28 21 -9 47 -13 57 -10 24
8 66 70 81 123 15 53 -1 135 -33 169 -25 27 -27 27 -55 8z m35 -73 c2 -7 -6
-12 -17 -12 -21 0 -27 11 -14 24 9 9 26 2 31 -12z"/>
<path d="M546 775 c-13 -31 -13 -39 0 -70 22 -53 18 -64 -28 -85 -56 -25 -119
-26 -149 -1 -25 20 -25 17 8 107 2 6 -3 14 -11 17 -26 10 -58 -64 -54 -125 2
-42 8 -55 31 -72 58 -43 212 -9 244 55 17 33 16 132 -1 174 -8 19 -17 35 -20
35 -3 0 -12 -16 -20 -35z"/>
<path d="M2127 792 c-21 -23 -37 -67 -37 -102 0 -32 23 -50 64 -50 14 0 26 -4
26 -9 0 -12 -67 -70 -96 -83 -35 -16 -29 -36 13 -47 51 -14 79 6 112 80 25 58
27 59 65 59 23 0 47 7 58 17 15 13 23 14 44 5 39 -18 71 -14 88 10 23 32 20
94 -4 118 -33 33 -63 25 -104 -25 -35 -42 -41 -45 -86 -45 -43 0 -48 3 -54 25
-8 30 -40 65 -59 65 -8 0 -21 -8 -30 -18z m301 -54 c16 -16 15 -28 0 -28 -22
0 -41 17 -34 29 9 14 19 14 34 -1z m-265 -4 c11 -11 -3 -24 -18 -18 -8 4 -12
10 -9 15 6 11 18 12 27 3z"/>
<path d="M1980 764 c-11 -32 -10 -39 9 -65 11 -15 21 -35 21 -42 0 -18 -43
-62 -93 -95 -42 -28 -38 -45 15 -56 86 -17 151 150 98 254 -11 22 -24 40 -29
40 -5 0 -15 -16 -21 -36z"/>
<path d="M3999 693 l-24 -28 28 24 c25 23 32 31 24 31 -2 0 -14 -12 -28 -27z"/>
<path d="M3939 618 c-50 -66 -52 -68 -46 -68 2 0 23 25 46 55 23 30 40 55 37
55 -2 0 -19 -19 -37 -42z"/>
<path d="M1217 592 c-15 -16 -15 -20 -1 -40 8 -12 21 -22 29 -22 8 0 21 10 29
22 14 20 14 24 -1 40 -9 10 -21 18 -28 18 -7 0 -19 -8 -28 -18z"/>
<path d="M3870 520 c-6 -11 -8 -20 -6 -20 3 0 10 9 16 20 6 11 8 20 6 20 -3 0
-10 -9 -16 -20z"/>
<path d="M3835 460 c-9 -16 -13 -30 -11 -30 3 0 12 14 21 30 9 17 13 30 11 30
-3 0 -12 -13 -21 -30z"/>
<path d="M310 390 l0 -90 46 0 c75 0 85 10 81 87 -4 78 -18 93 -84 93 l-43 0
0 -90z m73 73 c-7 -2 -19 -2 -25 0 -7 3 -2 5 12 5 14 0 19 -2 13 -5z m23 -37
c17 -18 4 -29 -29 -25 -12 2 -28 0 -35 -4 -10 -7 -12 11 -3 41 3 9 55 -1 67
-12z m4 -67 c0 -5 5 -7 11 -3 7 4 10 1 7 -7 -3 -8 -15 -13 -28 -11 -12 2 -20
0 -17 -5 3 -4 -8 -9 -24 -10 -15 -1 -31 3 -35 9 -5 7 -2 9 8 5 12 -4 14 -1 11
14 -5 16 0 19 31 19 20 0 36 -5 36 -11z"/>
<path d="M730 391 c0 -95 17 -127 22 -43 3 43 5 47 28 47 23 0 25 -4 28 -47 4
-63 22 -62 22 1 0 57 -20 85 -57 78 -19 -3 -23 0 -23 19 0 12 -4 26 -10 29 -6
4 -10 -27 -10 -84z"/>
<path d="M1246 458 c-3 -13 -5 -52 -3 -88 l2 -65 59 0 c39 0 61 4 64 13 2 8
-11 12 -48 12 -47 0 -51 2 -48 22 2 18 10 22 43 22 28 1 40 5 40 15 0 10 -12
15 -40 15 -33 1 -41 5 -43 23 -3 20 2 22 45 25 65 4 57 22 -12 26 -50 3 -55 1
-59 -20z"/>
<path d="M1490 450 c0 -28 -2 -29 -30 -23 -40 8 -70 -19 -70 -62 0 -44 26 -65
78 -62 l42 1 0 88 c0 52 -4 88 -10 88 -5 0 -10 -13 -10 -30z m-10 -84 c10 -27
-5 -46 -31 -39 -38 10 -45 53 -9 65 20 7 30 1 40 -26z"/>
<path d="M2585 468 c-10 -24 -1 -163 10 -163 13 0 19 155 6 168 -7 7 -12 5
-16 -5z"/>
<path d="M2739 451 c-58 -58 -20 -151 62 -151 41 0 59 18 59 60 0 39 -1 40
-35 40 -24 0 -35 -5 -35 -15 0 -9 9 -15 25 -15 33 0 33 -28 -1 -36 -43 -11
-74 10 -74 49 0 58 40 79 103 52 28 -12 21 20 -8 33 -41 19 -64 14 -96 -17z"/>
<path d="M2077 464 c-8 -8 1 -24 14 -24 5 0 9 7 9 15 0 15 -12 20 -23 9z"/>
<path d="M1980 445 c0 -8 -4 -15 -10 -15 -5 0 -10 -7 -10 -15 0 -8 5 -15 10
-15 6 0 10 -17 10 -38 0 -41 14 -62 42 -62 24 0 23 26 -2 33 -14 3 -20 14 -20
32 0 18 6 29 20 32 23 6 27 33 5 33 -9 0 -18 7 -21 15 -4 8 -10 15 -15 15 -5
0 -9 -7 -9 -15z"/>
<path d="M4473 440 c-88 -53 -82 -190 10 -233 19 -9 46 -17 59 -17 37 0 90 34
110 71 64 120 -64 249 -179 179z"/>
<path d="M487 412 c-22 -25 -21 -75 1 -95 40 -37 102 -8 102 48 0 56 -67 87
-103 47z m67 -28 c21 -20 20 -31 -3 -44 -25 -13 -51 -3 -51 21 0 14 21 36 37
39 1 0 9 -7 17 -16z"/>
<path d="M629 378 c-1 -27 -2 -53 -3 -60 -1 -6 4 -13 11 -15 8 -3 13 12 15 44
3 41 6 48 26 51 38 6 27 32 -13 29 -34 -2 -35 -3 -36 -49z"/>
<path d="M881 414 c-24 -18 -28 -61 -7 -89 10 -14 28 -20 60 -21 l46 -2 0 62
0 62 -39 1 c-21 1 -48 -5 -60 -13z m72 -53 c7 -27 -12 -41 -40 -30 -25 9 -32
54 -10 62 18 7 44 -10 50 -32z"/>
<path d="M1023 414 c-8 -21 2 -109 12 -109 6 0 12 20 15 45 4 40 8 45 30 45
23 0 25 -4 28 -47 4 -63 22 -62 22 1 0 61 -18 82 -67 78 -19 -1 -37 -7 -40
-13z"/>
<path d="M1547 423 c-13 -12 -7 -78 9 -101 13 -18 23 -22 57 -20 l42 3 0 58
c0 68 -18 81 -25 17 -4 -40 -8 -45 -30 -45 -22 0 -25 5 -28 40 -3 41 -13 60
-25 48z"/>
<path d="M1701 404 c-12 -15 -21 -32 -21 -39 0 -21 41 -65 60 -65 28 0 50 11
50 25 0 8 -13 12 -37 11 -36 -1 -38 1 -38 29 0 28 2 30 38 29 38 -1 52 18 21
30 -31 12 -53 6 -73 -20z"/>
<path d="M1831 404 c-23 -29 -21 -55 7 -87 12 -13 26 -17 56 -14 l41 4 0 58 0
58 -41 4 c-36 3 -45 0 -63 -23z m82 -44 c9 -36 -46 -42 -67 -7 -9 15 -7 21 8
32 23 17 51 5 59 -25z"/>
<path d="M2075 408 c-9 -35 -2 -103 10 -101 13 4 19 103 6 116 -7 7 -12 2 -16
-15z"/>
<path d="M2152 414 c-47 -32 -18 -114 40 -114 55 0 81 77 38 112 -27 22 -49
23 -78 2z m64 -42 c6 -12 14 -19 18 -15 4 4 4 0 1 -9 -6 -14 -34 -18 -77 -9
-14 2 -9 29 8 46 20 19 35 15 50 -13z"/>
<path d="M2290 363 c0 -73 17 -86 22 -15 3 43 5 47 28 47 22 0 26 -5 30 -45 6
-55 24 -59 28 -7 5 58 -19 87 -68 85 l-40 -1 0 -64z"/>
<path d="M2439 409 c-22 -22 -25 -57 -5 -84 10 -14 28 -20 60 -21 l46 -2 0 62
0 62 -41 1 c-28 1 -46 -4 -60 -18z m55 -15 c18 -7 22 -49 6 -59 -15 -9 -47 3
-54 20 -3 8 2 21 10 30 18 17 17 17 38 9z"/>
<path d="M2900 364 c0 -36 4 -64 10 -64 6 0 10 17 10 38 0 42 14 62 43 62 36
0 10 25 -26 26 l-37 1 0 -63z"/>
<path d="M3011 404 c-24 -31 -25 -37 -10 -67 23 -43 66 -50 99 -17 39 39 11
110 -44 110 -15 0 -33 -11 -45 -26z m79 -42 c0 -15 2 -15 10 -2 5 8 10 11 10
6 0 -5 -7 -17 -16 -27 -12 -13 -22 -16 -39 -9 -13 5 -26 6 -29 3 -3 -4 -6 5
-6 20 0 31 27 49 52 36 10 -5 18 -17 18 -27z"/>
<path d="M3150 382 c0 -60 20 -82 73 -80 l37 1 0 64 c0 35 -4 63 -10 63 -5 0
-10 -20 -10 -45 0 -33 -5 -47 -16 -52 -28 -11 -49 11 -52 56 -4 57 -22 52 -22
-7z"/>
<path d="M3293 414 c-8 -21 2 -159 12 -159 6 0 11 12 13 27 2 19 8 25 18 21
28 -10 61 7 74 38 11 27 11 33 -7 57 -16 22 -29 27 -63 27 -23 1 -44 -4 -47
-11z m97 -60 c0 -22 -4 -25 -26 -22 -38 4 -55 35 -30 53 26 19 56 2 56 -31z"/>
</g>
</svg>
