<?xml version="1.0" encoding="UTF-8"?>
<svg version="1.1" xmlns="http://www.w3.org/2000/svg" width="236" height="208">
<path d="M0 0 C1.9140625 2.25 1.9140625 2.25 3.625 5 C5.96166718 9.03480187 5.96166718 9.03480187 10 11 C10.07089844 11.70125 10.14179688 12.4025 10.21484375 13.125 C11.5283092 17.93450532 14.95372637 21.25541572 18.06640625 25.0625 C20.08390335 28.1274653 20.46609267 29.42881109 20 33 C18.02 33.66 16.04 34.32 14 35 C14 35.66 14 36.32 14 37 C13.46890625 37.25394531 12.9378125 37.50789063 12.390625 37.76953125 C8.64660755 39.59371493 5.27414312 41.4032658 2 44 C0.33720673 45.0064275 -1.32983484 46.00585407 -3 47 C-4.051875 47.721875 -5.10375 48.44375 -6.1875 49.1875 C-9 51 -9 51 -11 51 C-11 51.66 -11 52.32 -11 53 C-15.38461538 56 -15.38461538 56 -18 56 C-18 56.66 -18 57.32 -18 58 C-19.90549732 59.5752919 -21.81811143 61.04482366 -23.8125 62.5 C-29.50231594 66.73928591 -34.71788058 71.27470334 -39.85546875 76.1640625 C-42 78 -42 78 -44 78 C-44.495 79.485 -44.495 79.485 -45 81 C-46.63671875 82.54296875 -46.63671875 82.54296875 -48.6875 84.1875 C-52.20733135 87.16050041 -54.87789414 90.21796066 -57.48046875 94.0078125 C-59 96 -59 96 -61.27734375 98.20703125 C-64.71525439 101.73372581 -67.51356031 105.56310677 -70.375 109.5625 C-70.94500732 110.35446777 -71.51501465 111.14643555 -72.10229492 111.96240234 C-76.47185728 118.10256789 -80.42060668 124.36185239 -84 131 C-81.18986467 127.83391419 -78.47634927 124.71452391 -76.125 121.1875 C-71.70782042 114.56173063 -66.6767924 108.57481409 -61 103 C-60.05403207 102.03446604 -59.11008879 101.06694515 -58.16796875 100.09765625 C-53.24715064 95.07212247 -48.44104619 90.29511209 -42.671875 86.23046875 C-40.19398467 84.40678778 -38.14213615 82.20003172 -36 80 C-32.5875711 77.14660382 -29.06050925 74.64299908 -25.3125 72.25 C-24.35988281 71.63640625 -23.40726562 71.0228125 -22.42578125 70.390625 C-20 69 -20 69 -18 69 C-18 68.34 -18 67.68 -18 67 C6.02030457 53 6.02030457 53 11 53 C11 52.34 11 51.68 11 51 C18.53423389 47.75724365 26.12713852 44.81793911 33.87109375 42.11328125 C35.83420252 41.41479686 37.7823764 40.67099489 39.703125 39.86328125 C42.55775914 38.79036604 44.97668035 38.85938048 48 39 C50.43434309 45.38860598 52.55499621 51.75464393 54.27734375 58.37109375 C54.9607203 60.85710682 55.76265671 63.25877471 56.625 65.6875 C58.04045377 69.79305701 58.60729646 73.6802611 59 78 C52.28115214 80.475365 45.57534901 81.96278632 38.55078125 83.25390625 C35.24217002 83.94911499 32.18509293 84.87948254 29 86 C27.52289638 86.44441553 26.04375339 86.882118 24.5625 87.3125 C10.58454242 91.49537753 -3.03453424 96.19412747 -15.94140625 103.08203125 C-18 104 -18 104 -21 104 C-21 104.66 -21 105.32 -21 106 C-22.01578125 106.4846875 -23.0315625 106.969375 -24.078125 107.46875 C-31.92254565 111.26807747 -39.28896691 115.2453475 -46.44921875 120.23828125 C-49 122 -49 122 -51.76953125 123.60546875 C-54.1199308 124.80543185 -54.1199308 124.80543185 -55 127 C-54.34 127 -53.68 127 -53 127 C-53 126.34 -53 125.68 -53 125 C-47.25 122 -47.25 122 -45 122 C-45 121.34 -45 120.68 -45 120 C-23.08730893 108.91993162 -1.1219913 98.93741658 23.18359375 94.578125 C25.89205078 94.29144282 25.89205078 94.29144282 27 93 C40.31743991 90.75322423 54.02117681 89.81940103 67.5 89.1875 C68.51328369 89.13464844 69.52656738 89.08179687 70.57055664 89.02734375 C71.50633545 88.99125 72.44211426 88.95515625 73.40625 88.91796875 C74.22416016 88.88469482 75.04207031 88.8514209 75.88476562 88.81713867 C78 89 78 89 81 91 C81.27902671 93.9678122 81.3717594 96.72414274 81.328125 99.69140625 C81.32625183 100.55185043 81.32437866 101.41229462 81.32244873 102.29881287 C81.31572136 104.11876293 81.30179329 105.93869837 81.28125 107.75854492 C81.25008737 110.5546603 81.24028002 113.35021256 81.234375 116.14648438 C81.2252057 117.91146525 81.21483016 119.67644037 81.203125 121.44140625 C81.19887512 122.28304825 81.19462524 123.12469025 81.19024658 123.99183655 C81.11714861 129.88285139 81.11714861 129.88285139 80 131 C77.40840113 130.90105965 74.83649734 130.74250027 72.25 130.5625 C62.76730796 130.0060124 53.29326541 129.85316475 43.79675293 129.82174683 C42.20892485 129.81568412 40.62110558 129.805986 39.0333252 129.79226685 C27.55143679 129.69971999 16.37835112 130.46710961 5 132 C3.90268555 132.14606689 2.80537109 132.29213379 1.67480469 132.44262695 C-12.59217242 134.46200754 -26.27719088 137.63284086 -40 142 C-41.2375 142.37769531 -42.475 142.75539062 -43.75 143.14453125 C-57.75231369 147.73093724 -71.31152158 155.04475893 -83 164 C-84.01707031 164.73283203 -84.01707031 164.73283203 -85.0546875 165.48046875 C-89.67752929 168.8351769 -93.76948472 172.53351042 -97.82421875 176.55859375 C-100 178 -100 178 -102.76953125 177.72265625 C-103.50558594 177.48417969 -104.24164063 177.24570313 -105 177 C-107.65080567 128.63752322 -84.75522725 82.40484292 -55.24072266 45.56396484 C-54.06927702 44.08732558 -52.93000143 42.58532932 -51.79296875 41.08203125 C-51.20128906 40.39496094 -50.60960937 39.70789062 -50 39 C-49.34 39 -48.68 39 -48 39 C-47.74726318 38.4227417 -47.49452637 37.8454834 -47.23413086 37.25073242 C-45.85027177 34.7269348 -44.28459122 33.02576674 -42.25390625 30.98828125 C-41.50383301 30.23426025 -40.75375977 29.48023926 -39.98095703 28.70336914 C-39.18286621 27.91438232 -38.38477539 27.12539551 -37.5625 26.3125 C-36.75151855 25.50611084 -35.94053711 24.69972168 -35.10498047 23.86889648 C-29.3411507 18.19170203 -23.46967051 12.86977004 -17 8 C-16.28585938 7.43152344 -15.57171875 6.86304688 -14.8359375 6.27734375 C-13 5 -13 5 -11 5 C-10.67 4.01 -10.34 3.02 -10 2 C-6.37118863 -0.82240884 -4.36105542 -1.52036794 0 0 Z M-57 127 C-57.99 127.99 -58.98 128.98 -60 130 C-58.35 129.34 -56.7 128.68 -55 128 C-55.66 127.67 -56.32 127.34 -57 127 Z M-63 131 C-63.99 132.485 -63.99 132.485 -65 134 C-63.68 133.34 -62.36 132.68 -61 132 C-61.66 131.67 -62.32 131.34 -63 131 Z M-86 133 C-85 135 -85 135 -85 135 Z M-87 135 C-86 137 -86 137 -86 137 Z M-88 137 C-87 139 -87 139 -87 139 Z " fill="#015974" transform="translate(124,1)"/>
<path d="M0 0 C2.43434309 6.38860598 4.55499621 12.75464393 6.27734375 19.37109375 C6.9607203 21.85710682 7.76265671 24.25877471 8.625 26.6875 C10.04045377 30.79305701 10.60729646 34.6802611 11 39 C4.28115214 41.475365 -2.42465099 42.96278632 -9.44921875 44.25390625 C-12.75782998 44.94911499 -15.81490707 45.87948254 -19 47 C-20.47710362 47.44441553 -21.95624661 47.882118 -23.4375 48.3125 C-37.41545758 52.49537753 -51.03453424 57.19412747 -63.94140625 64.08203125 C-66 65 -66 65 -69 65 C-69 65.66 -69 66.32 -69 67 C-70.01578125 67.4846875 -71.0315625 67.969375 -72.078125 68.46875 C-79.92254565 72.26807747 -87.28896691 76.2453475 -94.44921875 81.23828125 C-96.17533118 82.43043547 -97.94410052 83.56270003 -99.74609375 84.63671875 C-101.99353134 85.85189513 -101.99353134 85.85189513 -103.375 87.5 C-105 89 -105 89 -108.1875 90.125 C-112.68982272 91.8764321 -115.10082875 95.31185098 -118.0078125 99.0390625 C-120 101 -120 101 -122.4609375 101.484375 C-125.9969469 102.20245691 -127.17670351 103.91721431 -129.5 106.625 C-130.27214844 107.5221875 -131.04429687 108.419375 -131.83984375 109.34375 C-134.3870421 112.4759288 -136.74424822 115.65275543 -139 119 C-140.42944945 116.64561267 -141.08661261 115.51967567 -140.625 112.75 C-140.41875 112.1725 -140.2125 111.595 -140 111 C-139.34 111 -138.68 111 -138 111 C-137.76152344 109.99195313 -137.52304688 108.98390625 -137.27734375 107.9453125 C-136.07541259 103.74436753 -134.00335995 100.46334016 -131.5625 96.875 C-128.96019037 92.96092255 -126.38552291 89.05182846 -124 85 C-123.505 84.195625 -123.01 83.39125 -122.5 82.5625 C-120.94519121 79.98805438 -120.94519121 79.98805438 -119.625 77.125 C-116.35355558 70.83376074 -112.53836542 66.36641365 -107.10546875 61.8203125 C-104.94901344 59.95591886 -102.98181608 57.9855064 -101 55.9375 C-97.82115865 52.70245124 -94.48616089 50.01871263 -90.8125 47.37109375 C-88.3050078 45.47426236 -86.19027023 43.24946672 -84 41 C-80.5875711 38.14660382 -77.06050925 35.64299908 -73.3125 33.25 C-72.35988281 32.63640625 -71.40726562 32.0228125 -70.42578125 31.390625 C-68 30 -68 30 -66 30 C-66 29.34 -66 28.68 -66 28 C-41.97969543 14 -41.97969543 14 -37 14 C-37 13.34 -37 12.68 -37 12 C-29.46576611 8.75724365 -21.87286148 5.81793911 -14.12890625 3.11328125 C-12.16579748 2.41479686 -10.2176236 1.67099489 -8.296875 0.86328125 C-5.44224086 -0.20963396 -3.02331965 -0.14061952 0 0 Z " fill="#F35307" transform="translate(172,40)"/>
<path d="M0 0 C1.9140625 2.25 1.9140625 2.25 3.625 5 C5.96166718 9.03480187 5.96166718 9.03480187 10 11 C10.07089844 11.70125 10.14179688 12.4025 10.21484375 13.125 C11.5283092 17.93450532 14.95372637 21.25541572 18.06640625 25.0625 C20.08390335 28.1274653 20.46609267 29.42881109 20 33 C18.02 33.66 16.04 34.32 14 35 C14 35.66 14 36.32 14 37 C13.46890625 37.25394531 12.9378125 37.50789063 12.390625 37.76953125 C8.64660755 39.59371493 5.27414312 41.4032658 2 44 C0.33720673 45.0064275 -1.32983484 46.00585407 -3 47 C-4.051875 47.721875 -5.10375 48.44375 -6.1875 49.1875 C-9 51 -9 51 -11 51 C-11 51.66 -11 52.32 -11 53 C-15.38461538 56 -15.38461538 56 -18 56 C-18 56.66 -18 57.32 -18 58 C-19.90549732 59.5752919 -21.81811143 61.04482366 -23.8125 62.5 C-29.50231594 66.73928591 -34.71788058 71.27470334 -39.85546875 76.1640625 C-42 78 -42 78 -44 78 C-44.495 79.485 -44.495 79.485 -45 81 C-46.63671875 82.54296875 -46.63671875 82.54296875 -48.6875 84.1875 C-52.20733135 87.16050041 -54.87789414 90.21796066 -57.48046875 94.0078125 C-59 96 -59 96 -61.26953125 98.18359375 C-64.79110355 101.81600238 -67.5935343 105.80708181 -70.5 109.9375 C-76.76217409 118.7931731 -76.76217409 118.7931731 -79.60546875 122.04296875 C-82.49183637 125.60737379 -84.62850472 129.35586725 -86.8125 133.375 C-87.21919922 134.11105469 -87.62589844 134.84710938 -88.04492188 135.60546875 C-89.03568194 137.40049288 -90.01866041 139.19980842 -91 141 C-91.66 141 -92.32 141 -93 141 C-93.12375 141.556875 -93.2475 142.11375 -93.375 142.6875 C-94.05976855 145.22114364 -94.99133763 147.57921032 -96 150 C-96.66 150 -97.32 150 -98 150 C-98.495 150.99 -98.495 150.99 -99 152 C-100.20494154 147.05973969 -99.68597922 143.77694113 -98 139 C-97.67 138.67 -97.34 138.34 -97 138 C-97.061875 137.071875 -97.12375 136.14375 -97.1875 135.1875 C-97.25260339 130.59306052 -95.67227835 126.74309511 -94.140625 122.4609375 C-92.65010112 117.93832051 -91.5728066 113.34896303 -90.57128906 108.69555664 C-89.44623124 103.82051125 -87.60994175 100.2030937 -85 96 C-84.34 96 -83.68 96 -83 96 C-82.87625 95.360625 -82.7525 94.72125 -82.625 94.0625 C-82.41875 93.381875 -82.2125 92.70125 -82 92 C-81.01 91.505 -81.01 91.505 -80 91 C-77.55211694 86.83389133 -75.47234207 82.47606897 -74 77.875 C-72.82775572 74.50479771 -71.10107478 71.85658527 -69.15625 68.8828125 C-67.8783221 66.9378761 -67.8783221 66.9378761 -67 64.3125 C-65.62451263 61.13168545 -63.52519484 59.34901845 -61 57 C-60.13375 56.13375 -59.2675 55.2675 -58.375 54.375 C-57.06183879 53.06183879 -55.72619749 51.76676082 -54.3125 50.5625 C-52.40905067 48.2964889 -51.836677 45.80884423 -51 43 C-50.505 42.01 -50.505 42.01 -50 41 C-48.35 41 -46.7 41 -45 41 C-45 40.34 -45 39.68 -45 39 C-43.56640625 37.58984375 -43.56640625 37.58984375 -41.5625 35.9375 C-32.07772327 27.92601381 -32.07772327 27.92601381 -25.0859375 17.83203125 C-22.30019008 13.13233506 -18.44949002 7.97766292 -13.30859375 5.92578125 C-12.54675781 5.62027344 -11.78492187 5.31476562 -11 5 C-10.67 4.01 -10.34 3.02 -10 2 C-6.37118863 -0.82240884 -4.36105542 -1.52036794 0 0 Z " fill="#035A75" transform="translate(124,1)"/>
<path d="M0 0 C6.83276341 -0.65073937 10.50828508 0.18576281 16.05078125 4.27734375 C19.95635517 7.72896319 22.67570323 11.72584991 23.203125 17.05078125 C23.35775889 24.51186667 21.18697298 29.51662857 16 35 C10.76337436 38.70395472 5.19001768 38.92191753 -1 38 C-6.17394272 36.06299981 -9.88272645 32.92864814 -12.31640625 27.953125 C-14.48259901 21.76400283 -14.53223093 16.10037452 -12 10 C-9.67464053 6.44645772 -7.13255436 3.37751812 -3 2 C-2.01 2 -1.02 2 0 2 C0 1.34 0 0.68 0 0 Z " fill="#015974" transform="translate(121,142)"/>
<path d="M0 0 C4.32752888 4.15534603 5.69675822 9.70618315 5.91015625 15.5390625 C5.6468697 20.85415977 4.60799934 25.18280565 0.8203125 29.140625 C-4.34445766 33.74851719 -8.21806226 34.71264632 -15.09375 34.6328125 C-18.28132044 34.34628931 -20.03894801 33.40477909 -22.52734375 31.4140625 C-23.82671875 30.5478125 -23.82671875 30.5478125 -25.15234375 29.6640625 C-29.57426299 25.47487586 -30.69819924 21.25400159 -30.90234375 15.3515625 C-30.65673429 8.58706856 -27.98625769 4.21151656 -23.1171875 -0.32421875 C-16.71027606 -5.40881923 -6.62762281 -4.35574265 0 0 Z " fill="#015974" transform="translate(39.52734375,42.5859375)"/>
<path d="M0 0 C0.99 0.495 0.99 0.495 2 1 C1.60167969 1.44730469 1.20335938 1.89460937 0.79296875 2.35546875 C0.26316406 2.96003906 -0.26664062 3.56460937 -0.8125 4.1875 C-1.33457031 4.77917969 -1.85664062 5.37085938 -2.39453125 5.98046875 C-4.06256637 7.96331904 -4.06256637 7.96331904 -5.2578125 10.28125 C-7.71609931 14.11750028 -10.83131784 17.12076259 -14.0625 20.3125 C-14.69994141 20.95767578 -15.33738281 21.60285156 -15.99414062 22.26757812 C-16.60580078 22.87666016 -17.21746094 23.48574219 -17.84765625 24.11328125 C-18.40461182 24.66798096 -18.96156738 25.22268066 -19.53540039 25.79418945 C-21 27 -21 27 -23 27 C-23 27.66 -23 28.32 -23 29 C-24.65 29 -26.3 29 -28 29 C-28.23783203 29.90492187 -28.23783203 29.90492187 -28.48046875 30.828125 C-30.05673905 36.22750392 -31.35273462 38.64964589 -36 42 C-37.64099706 44.04518352 -39.15994745 46.14831577 -40.66796875 48.29296875 C-42 50 -42 50 -44 51 C-44.72997841 52.69222268 -45.45496227 54.3869977 -46.140625 56.09765625 C-47 58 -47 58 -49.125 61.125 C-51.11101037 63.76615395 -51.11101037 63.76615395 -51.42578125 66.31640625 C-52.11746309 69.54896014 -53.43649371 71.94104207 -55.0625 74.8125 C-55.61035156 75.78832031 -56.15820312 76.76414062 -56.72265625 77.76953125 C-57.14417969 78.50558594 -57.56570312 79.24164063 -58 80 C-58.66 80 -59.32 80 -60 80 C-60.33 81.32 -60.66 82.64 -61 84 C-61.66 84 -62.32 84 -63 84 C-66.89277326 93.38743994 -69.41290909 103.33262587 -72.16796875 113.1015625 C-72.73602974 115.08044164 -73.34895039 117.04685117 -74 119 C-74.06665376 120.39439664 -74.08538199 121.79169875 -74.0625 123.1875 C-74.041875 124.445625 -74.02125 125.70375 -74 127 C-74.66 127 -75.32 127 -76 127 C-76.33 130.3 -76.66 133.6 -77 137 C-76.01 137.33 -75.02 137.66 -74 138 C-73.81824219 137.38511719 -73.63648438 136.77023438 -73.44921875 136.13671875 C-73.19785156 135.32847656 -72.94648437 134.52023438 -72.6875 133.6875 C-72.44386719 132.88699219 -72.20023438 132.08648437 -71.94921875 131.26171875 C-71 129 -71 129 -69.56396484 127.57983398 C-67.94734217 125.94680786 -67.06015663 124.50268946 -66.02734375 122.4609375 C-65.68509766 121.79835938 -65.34285156 121.13578125 -64.99023438 120.453125 C-64.28446431 119.05991655 -63.57873559 117.66668715 -62.87304688 116.2734375 C-60.20059455 111.10029728 -60.20059455 111.10029728 -58 110 C-59.875 115.75 -59.875 115.75 -61 118 C-60.62488281 117.49210937 -60.24976562 116.98421875 -59.86328125 116.4609375 C-56.692633 112.19613608 -53.44175544 108.04912405 -50 104 C-50 107.65725087 -51.04218764 108.95451411 -53 112 C-53.680625 113.175625 -53.680625 113.175625 -54.375 114.375 C-56 117 -56 117 -58.25 119.9375 C-62.28997316 125.47238677 -65.03868808 131.84695709 -68 138 C-68.66 138 -69.32 138 -70 138 C-69.96519531 138.59167969 -69.93039063 139.18335938 -69.89453125 139.79296875 C-69.72006298 144.88578077 -69.97559192 147.74342567 -73 152 C-73.54305479 153.2405075 -74.06309158 154.49128693 -74.5625 155.75 C-76 159 -76 159 -78 160 C-78 158.02 -78 156.04 -78 154 C-79.88391785 157.26545761 -80.49287967 160.28111761 -81 164 C-76.05484333 161.37288552 -72.12224511 157.73354706 -68 154 C-67.34 154.33 -66.68 154.66 -66 155 C-66.67095703 155.56267578 -66.67095703 155.56267578 -67.35546875 156.13671875 C-67.96003906 156.64847656 -68.56460938 157.16023437 -69.1875 157.6875 C-69.82816406 158.22890625 -70.46882813 158.7703125 -71.12890625 159.328125 C-73.21094371 161.12564062 -73.21094371 161.12564062 -75.625 163.9375 C-76.40875 164.618125 -77.1925 165.29875 -78 166 C-80.6484375 165.62890625 -80.6484375 165.62890625 -83 165 C-85.65080567 116.63752322 -62.75522725 70.40484292 -33.24072266 33.56396484 C-32.06927702 32.08732558 -30.93000143 30.58532932 -29.79296875 29.08203125 C-29.20128906 28.39496094 -28.60960937 27.70789063 -28 27 C-27.34 27 -26.68 27 -26 27 C-25.75088867 26.42564209 -25.50177734 25.85128418 -25.24511719 25.25952148 C-23.81833495 22.67033136 -22.17386364 20.9311881 -20.078125 18.84765625 C-19.29953125 18.07099609 -18.5209375 17.29433594 -17.71875 16.49414062 C-16.9040625 15.69169922 -16.089375 14.88925781 -15.25 14.0625 C-14.45078125 13.26392578 -13.6515625 12.46535156 -12.828125 11.64257812 C-8.70172346 7.54671739 -4.5441881 3.62802115 0 0 Z M-64 121 C-63 123 -63 123 -63 123 Z M-65 123 C-64 125 -64 125 -64 125 Z M-66 125 C-65 127 -65 127 -65 127 Z " fill="#7896A0" transform="translate(102,13)"/>
<path d="M0 0 C-0.33 1.65 -0.66 3.3 -1 5 C-1.598125 5.0825 -2.19625 5.165 -2.8125 5.25 C-5.12830733 5.80173301 -5.12830733 5.80173301 -6.25 7.8125 C-8.48509386 10.60636732 -10.86449768 11.50385948 -14.06640625 12.984375 C-16.49925324 14.26223403 -18.14206419 15.99914605 -20 18 C-20.66 18 -21.32 18 -22 18 C-22.08121094 18.57621094 -22.16242187 19.15242188 -22.24609375 19.74609375 C-23.22987127 22.68723171 -24.7872406 23.97985515 -27.0625 26.0625 C-29.26368006 28.01285116 -29.26368006 28.01285116 -31 30 C-31 30.99 -31 31.98 -31 33 C-29.700625 31.9790625 -29.700625 31.9790625 -28.375 30.9375 C-19.96773681 24.94201736 -10.06503498 20.87267842 -0.5234375 17.04296875 C1.96581355 16.07569647 1.96581355 16.07569647 4.0390625 14.83984375 C6.5190832 13.77768349 8.10020172 13.98532378 10.75 14.375 C11.54921875 14.48585937 12.3484375 14.59671875 13.171875 14.7109375 C13.77515625 14.80632812 14.3784375 14.90171875 15 15 C12.22650826 16.84899449 9.80010241 17.78772033 6.65649414 18.80053711 C-7.17667752 23.2873521 -20.27217635 29.85423098 -31.9453125 38.55859375 C-33.93360654 39.9534236 -35.85221982 40.94416397 -38.0625 41.9375 C-42.42995924 43.95256758 -45.59225906 47.06647427 -49.01953125 50.390625 C-51 52 -51 52 -54 52 C-54.34833144 47.12335991 -53.41685712 44.22949995 -51 40 C-50.67 40 -50.34 40 -50 40 C-50 42.31 -50 44.62 -50 47 C-49.319375 45.1746875 -49.319375 45.1746875 -48.625 43.3125 C-43.85308982 32.58834849 -34.93330166 23.48901603 -27 15 C-25.68 15.33 -24.36 15.66 -23 16 C-22.62875 15.29875 -22.2575 14.5975 -21.875 13.875 C-18.70955027 9.02131041 -16.13331247 5.4700519 -10.3125 4.1875 C-9.219375 4.125625 -8.12625 4.06375 -7 4 C-6.01 3.67 -5.02 3.34 -4 3 C-4 2.34 -4 1.68 -4 1 C-2 0 -2 0 0 0 Z M-14 7 C-14.99 8.485 -14.99 8.485 -16 10 C-14.68 9.34 -13.36 8.68 -12 8 C-12.66 7.67 -13.32 7.34 -14 7 Z " fill="#0F5E77" transform="translate(75,125)"/>
<path d="M0 0 C0.02464775 5.53588533 0.04283496 11.071739 0.05493164 16.60766602 C0.05997244 18.4924373 0.06680498 20.37720465 0.07543945 22.26196289 C0.08751617 24.96501636 0.09323068 27.66801831 0.09765625 30.37109375 C0.10281754 31.21900986 0.10797882 32.06692596 0.11329651 32.9405365 C0.11349195 34.96071068 0.06206211 36.98077934 0 39 C-0.33 39.33 -0.66 39.66 -1 40 C-3.59159887 39.90105965 -6.16350266 39.74250027 -8.75 39.5625 C-18.23269204 39.0060124 -27.70673459 38.85316475 -37.20324707 38.82174683 C-38.79107515 38.81568412 -40.37889442 38.805986 -41.9666748 38.79226685 C-57.70118876 38.66544278 -72.99056419 40.31396093 -88.5 42.9375 C-89.4796875 43.09412109 -90.459375 43.25074219 -91.46875 43.41210938 C-97.11235468 44.35396095 -102.42010965 45.62772881 -107.82617188 47.51391602 C-110.25627453 48.05730487 -111.66577283 47.79102152 -114 47 C-104.4665086 43.26022679 -95.33814456 40.82628561 -85.1875 39.25 C-83.96224609 39.04246094 -82.73699219 38.83492187 -81.47460938 38.62109375 C-65.80389603 36.08696692 -49.99733823 35.81784885 -34.15771484 35.44238281 C-31.34322214 35.37423051 -28.52908267 35.29661239 -25.71484375 35.21875 C-23.90105573 35.17390661 -22.08725396 35.12961523 -20.2734375 35.0859375 C-19.44419769 35.06203949 -18.61495789 35.03814148 -17.7605896 35.01351929 C-16.97511749 34.9966507 -16.18964539 34.9797821 -15.38037109 34.96240234 C-14.70106537 34.94543304 -14.02175964 34.92846375 -13.3218689 34.91098022 C-10.1957439 35.03083494 -7.09697953 35.55757435 -4 36 C-4 24.78 -4 13.56 -4 2 C-7.96 2.33 -11.92 2.66 -16 3 C-19.50814693 3.04103096 -22.99443454 3.0485691 -26.5 3 C-43.08770101 2.93739941 -59.68628898 4.63016831 -75.4453125 10.22265625 C-78.14568614 11.04432957 -79.39846105 11.00059191 -82 10 C-74.06033237 7.08731001 -66.25341273 5.11789349 -57.95703125 3.61328125 C-55.12511457 3.30804 -55.12511457 3.30804 -54 2 C-40.8658965 -0.20005593 -27.35365237 -1.15710498 -14.0625 -1.8125 C-13.10520996 -1.86535156 -12.14791992 -1.91820313 -11.16162109 -1.97265625 C-10.2742627 -2.00875 -9.3869043 -2.04484375 -8.47265625 -2.08203125 C-7.70187744 -2.11530518 -6.93109863 -2.1485791 -6.13696289 -2.18286133 C-3.69081603 -1.97354292 -2.11049488 -1.2204153 0 0 Z " fill="#2A5A68" transform="translate(205,92)"/>
<path d="M0 0 C2.5654594 2.5654594 2.54046087 4.47686668 3 8 C3.66 8 4.32 8 5 8 C5.495 11.96 5.495 11.96 6 16 C-0.71884786 18.475365 -7.42465099 19.96278632 -14.44921875 21.25390625 C-17.75782998 21.94911499 -20.81490707 22.87948254 -24 24 C-25.47710362 24.44441553 -26.95624661 24.882118 -28.4375 25.3125 C-42.41545758 29.49537753 -56.03453424 34.19412747 -68.94140625 41.08203125 C-71 42 -71 42 -74 42 C-74 42.66 -74 43.32 -74 44 C-75.01578125 44.4846875 -76.0315625 44.969375 -77.078125 45.46875 C-84.92254565 49.26807747 -92.28896691 53.2453475 -99.44921875 58.23828125 C-101.16728381 59.42487748 -102.92648671 60.55376217 -104.71875 61.625 C-106.83715169 62.90184485 -108.34911771 64.17534062 -110 66 C-110.66 65.67 -111.32 65.34 -112 65 C-108.34238312 59.14186565 -104.58488361 55.74733586 -98.55078125 52.421875 C-96.19974952 51.11134583 -94.06590713 49.68335077 -91.875 48.125 C-85.93234407 44.09967156 -79.43674426 41.09459817 -72.98999023 37.97363281 C-70.95038231 36.97572379 -68.92901012 35.94562424 -66.90625 34.9140625 C-63.52867674 33.2213633 -60.10894202 31.81054537 -56.5625 30.5 C-52.87622325 29.13437056 -49.28439206 27.68097202 -45.71875 26.03125 C-40.90779343 23.87257181 -36.01556267 22.39298359 -30.9375 21 C-30.02790527 20.74581299 -29.11831055 20.49162598 -28.18115234 20.22973633 C-6.562343 14.23503407 -6.562343 14.23503407 3 13 C2.7834375 12.39671875 2.566875 11.7934375 2.34375 11.171875 C2.0653125 10.37265625 1.786875 9.5734375 1.5 8.75 C1.2215625 7.96109375 0.943125 7.1721875 0.65625 6.359375 C0 4 0 4 0 0 Z " fill="#45322A" transform="translate(177,63)"/>
<path d="M0 0 C0.99 0.495 0.99 0.495 2 1 C1.60167969 1.44730469 1.20335938 1.89460937 0.79296875 2.35546875 C0.26316406 2.96003906 -0.26664063 3.56460937 -0.8125 4.1875 C-1.33457031 4.77917969 -1.85664062 5.37085938 -2.39453125 5.98046875 C-4.06256637 7.96331904 -4.06256637 7.96331904 -5.2578125 10.28125 C-7.71609931 14.11750028 -10.83131784 17.12076259 -14.0625 20.3125 C-14.69994141 20.95767578 -15.33738281 21.60285156 -15.99414062 22.26757812 C-16.60580078 22.87666016 -17.21746094 23.48574219 -17.84765625 24.11328125 C-18.40461182 24.66798096 -18.96156738 25.22268066 -19.53540039 25.79418945 C-21 27 -21 27 -23 27 C-23 27.66 -23 28.32 -23 29 C-24.65 29 -26.3 29 -28 29 C-28.23783203 29.90492187 -28.23783203 29.90492187 -28.48046875 30.828125 C-30.05673905 36.22750392 -31.35273462 38.64964589 -36 42 C-37.64099706 44.04518352 -39.15994745 46.14831577 -40.66796875 48.29296875 C-42 50 -42 50 -44 51 C-44.72997841 52.69222268 -45.45496227 54.3869977 -46.140625 56.09765625 C-47 58 -47 58 -49.125 61.125 C-51.11101037 63.76615395 -51.11101037 63.76615395 -51.42578125 66.31640625 C-52.11746309 69.54896014 -53.43649371 71.94104207 -55.0625 74.8125 C-55.61035156 75.78832031 -56.15820312 76.76414062 -56.72265625 77.76953125 C-57.35494141 78.87361328 -57.35494141 78.87361328 -58 80 C-58.66 80 -59.32 80 -60 80 C-60.33 81.32 -60.66 82.64 -61 84 C-61.66 84 -62.32 84 -63 84 C-58.68277301 64.88085191 -45.24457941 48.54753408 -33.24072266 33.56396484 C-32.06927702 32.08732558 -30.93000143 30.58532932 -29.79296875 29.08203125 C-29.20128906 28.39496094 -28.60960937 27.70789063 -28 27 C-27.34 27 -26.68 27 -26 27 C-25.75088867 26.42564209 -25.50177734 25.85128418 -25.24511719 25.25952148 C-23.81833495 22.67033136 -22.17386364 20.9311881 -20.078125 18.84765625 C-19.29953125 18.07099609 -18.5209375 17.29433594 -17.71875 16.49414062 C-16.9040625 15.69169922 -16.089375 14.88925781 -15.25 14.0625 C-14.05117187 12.86463867 -14.05117187 12.86463867 -12.828125 11.64257812 C-8.70172346 7.54671739 -4.5441881 3.62802115 0 0 Z " fill="#608A97" transform="translate(102,13)"/>
<path d="M0 0 C4.92307692 4.30769231 4.92307692 4.30769231 5.3125 7.8125 C5.209375 8.534375 5.10625 9.25625 5 10 C3.02 10.66 1.04 11.32 -1 12 C-1 12.66 -1 13.32 -1 14 C-1.53109375 14.25394531 -2.0621875 14.50789063 -2.609375 14.76953125 C-6.35339245 16.59371493 -9.72585688 18.4032658 -13 21 C-14.66279327 22.0064275 -16.32983484 23.00585407 -18 24 C-19.051875 24.721875 -20.10375 25.44375 -21.1875 26.1875 C-24 28 -24 28 -26 28 C-26 28.66 -26 29.32 -26 30 C-30.38461538 33 -30.38461538 33 -33 33 C-33 33.66 -33 34.32 -33 35 C-34.90549732 36.5752919 -36.81811143 38.04482366 -38.8125 39.5 C-44.50231594 43.73928591 -49.71788058 48.27470334 -54.85546875 53.1640625 C-57 55 -57 55 -59 55 C-59.33 55.99 -59.66 56.98 -60 58 C-61.62652316 59.70586575 -63.29006566 61.3777546 -65 63 C-65.66 62.67 -66.32 62.34 -67 62 C-64.05357044 51.19642494 -48.65732435 41.19529717 -40 35 C-39.34 35 -38.68 35 -38 35 C-38 33.68 -38 32.36 -38 31 C-37.28585938 30.92394531 -36.57171875 30.84789063 -35.8359375 30.76953125 C-32.25568277 29.79802962 -30.4076545 28.12331934 -27.625 25.6875 C-22.75627254 21.57032108 -18.39877432 18.08142819 -12.25 16.125 C-7.18626074 14.37216718 -2.6535571 11.63315152 2 9 C1.505 7.88625 1.505 7.88625 1 6.75 C0 4 0 4 0 0 Z " fill="#30383B" transform="translate(139,24)"/>
<path d="M0 0 C2.97 0 5.94 0 9 0 C9.33 0.66 9.66 1.32 10 2 C7.03 2 4.06 2 1 2 C1 2.99 1 3.98 1 5 C0.21753906 5.40992188 -0.56492187 5.81984375 -1.37109375 6.2421875 C-2.38300781 6.78101563 -3.39492187 7.31984375 -4.4375 7.875 C-5.95150391 8.67550781 -5.95150391 8.67550781 -7.49609375 9.4921875 C-10.10140442 10.75654114 -10.10140442 10.75654114 -11 13 C-11.19758231 15.07564676 -11.19758231 15.07564676 -11.1875 17.375 C-11.20167969 18.14585937 -11.21585937 18.91671875 -11.23046875 19.7109375 C-10.76042676 24.37949016 -8.00478508 27.53994445 -5 31 C-0.11522694 34.25651537 5.29519384 33.69468119 11 33 C13.8382311 31.66342213 14.88465527 30.44934653 17 28 C17.61875 27.401875 18.2375 26.80375 18.875 26.1875 C20.63390991 22.7673974 20.6973167 19.69389386 20 16 C18.57960998 12.51775349 16.85307467 9.2687022 15 6 C14.67 5.34 14.34 4.68 14 4 C18.21779303 5.50635465 19.7747674 8.24012422 22 12 C23.72924649 17.18773948 23.71534484 22.14010341 21.75 27.25 C18.45696781 32.42476487 15.96179678 35.9404702 10 38 C3.40770684 38.91868098 -1.88370233 38.5373069 -7.34375 34.54296875 C-11.97084688 30.23234784 -13.60756295 25.43801062 -14.03125 19.19921875 C-13.93716947 12.57830153 -11.44924605 8.55518048 -7 4 C-4.28509275 2.24329531 -3.28565953 2 0 2 C0 1.34 0 0.68 0 0 Z " fill="#6C7579" transform="translate(121,142)"/>
<path d="M0 0 C-0.75023437 0.30292969 -1.50046875 0.60585937 -2.2734375 0.91796875 C-8.31655383 3.39153652 -14.17925854 6.00699348 -19.94140625 9.08203125 C-22 10 -22 10 -25 10 C-25 10.66 -25 11.32 -25 12 C-26.01578125 12.4846875 -27.0315625 12.969375 -28.078125 13.46875 C-35.92254565 17.26807747 -43.28896691 21.2453475 -50.44921875 26.23828125 C-52.16728381 27.42487748 -53.92648671 28.55376217 -55.71875 29.625 C-57.83715169 30.90184485 -59.34911771 32.17534062 -61 34 C-61.66 33.67 -62.32 33.34 -63 33 C-59.34238312 27.14186565 -55.58488361 23.74733586 -49.55078125 20.421875 C-47.19974952 19.11134583 -45.06590713 17.68335077 -42.875 16.125 C-36.93627746 12.10233589 -30.44495369 9.09132942 -23.99804688 5.98071289 C-22.61558765 5.30215244 -21.24230747 4.60468594 -19.87695312 3.89233398 C-19.18408203 3.53212158 -18.49121094 3.17190918 -17.77734375 2.80078125 C-17.15722412 2.47247314 -16.53710449 2.14416504 -15.89819336 1.8059082 C-12.67542768 0.43763174 -9.47089335 0.29921494 -6 0 C-3.50907189 -1.24546405 -2.58919267 -0.7767578 0 0 Z " fill="#8B807B" transform="translate(128,95)"/>
<path d="M0 0 C-0.66 0 -1.32 0 -2 0 C-2.23203125 0.6290625 -2.4640625 1.258125 -2.703125 1.90625 C-4 4 -4 4 -6.171875 4.90625 C-7.02265625 5.1021875 -7.8734375 5.298125 -8.75 5.5 C-12.045134 6.35939374 -14.61947599 7.17384784 -17.375 9.1875 C-20 11 -20 11 -24 11 C-24.33 11.99 -24.66 12.98 -25 14 C-26.61685995 14.70737623 -28.23862572 15.40557393 -29.8828125 16.046875 C-34.13458886 17.96095882 -39.86456895 20.72913789 -42 25 C-43.093125 25.495 -44.18625 25.99 -45.3125 26.5 C-50.14271486 28.77923024 -53.9857841 32.14781342 -57.9621582 35.64648438 C-61.80880103 39 -61.80880103 39 -64 39 C-64 39.66 -64 40.32 -64 41 C-65.93359375 42.65625 -65.93359375 42.65625 -68.4375 44.5 C-71.74856792 46.79910263 -71.74856792 46.79910263 -74 50 C-76.5625 50.625 -76.5625 50.625 -79 51 C-74.71823636 45.75483954 -70.17491903 41.35254818 -65 37 C-63.77036477 35.9380423 -62.54117379 34.87556993 -61.3125 33.8125 C-56.8410209 29.96236787 -52.29105723 26.42866955 -47.3125 23.25 C-46.35988281 22.63640625 -45.40726563 22.0228125 -44.42578125 21.390625 C-42 20 -42 20 -40 20 C-40 19.34 -40 18.68 -40 18 C-15.97969543 4 -15.97969543 4 -11 4 C-11 3.34 -11 2.68 -11 2 C-3.57142857 -1.57142857 -3.57142857 -1.57142857 0 0 Z " fill="#B39D92" transform="translate(146,50)"/>
<path d="M0 0 C0.33 0 0.66 0 1 0 C1.02464775 5.53588533 1.04283496 11.071739 1.05493164 16.60766602 C1.05997244 18.4924373 1.06680498 20.37720465 1.07543945 22.26196289 C1.08751617 24.96501636 1.09323068 27.66801831 1.09765625 30.37109375 C1.10281754 31.21900986 1.10797882 32.06692596 1.11329651 32.9405365 C1.11349195 34.96071068 1.06206211 36.98077934 1 39 C0.67 39.33 0.34 39.66 0 40 C-2.59159887 39.90105965 -5.16350266 39.74250027 -7.75 39.5625 C-17.23269204 39.0060124 -26.70673459 38.85316475 -36.20324707 38.82174683 C-37.79107515 38.81568412 -39.37889442 38.805986 -40.9666748 38.79226685 C-56.70118876 38.66544278 -71.99056419 40.31396093 -87.5 42.9375 C-88.4796875 43.09412109 -89.459375 43.25074219 -90.46875 43.41210938 C-96.11235468 44.35396095 -101.42010965 45.62772881 -106.82617188 47.51391602 C-109.28000353 48.06261085 -110.61798512 47.67772621 -113 47 C-103.79853034 43.44291316 -94.91766299 40.81125043 -85.15234375 39.2109375 C-83.22671852 38.89435684 -83.22671852 38.89435684 -81.26219177 38.57138062 C-67.07156711 36.37482366 -52.93110977 36.38250516 -38.60723877 36.59838867 C-35.82883956 36.63454825 -33.05053706 36.64701028 -30.27194309 36.65880775 C-24.51780788 36.68412053 -18.76363259 36.72633703 -13.01000977 36.80712891 C-12.01461685 36.81998932 -11.01922394 36.83284973 -9.9936676 36.84609985 C-6.64473553 37.01826364 -3.31965159 37.52576406 0 38 C0 25.46 0 12.92 0 0 Z " fill="#C6C5C5" transform="translate(204,92)"/>
<path d="M0 0 C0 3.65725087 -1.04218764 4.95451411 -3 8 C-3.45375 8.78375 -3.9075 9.5675 -4.375 10.375 C-6 13 -6 13 -8.25 15.9375 C-12.28997316 21.47238677 -15.03868808 27.84695709 -18 34 C-18.66 34 -19.32 34 -20 34 C-19.96519531 34.59167969 -19.93039063 35.18335938 -19.89453125 35.79296875 C-19.72006298 40.88578077 -19.97559192 43.74342567 -23 48 C-23.54305479 49.2405075 -24.06309158 50.49128693 -24.5625 51.75 C-26 55 -26 55 -28 56 C-27.86722656 55.28714844 -27.73445313 54.57429688 -27.59765625 53.83984375 C-27.42105469 52.88207031 -27.24445312 51.92429688 -27.0625 50.9375 C-26.78019531 49.41769531 -26.78019531 49.41769531 -26.4921875 47.8671875 C-25.94656663 44.91587716 -25.94656663 44.91587716 -25.6875 41.5625 C-23.91661205 32.38608061 -19.09042273 24.03484115 -14.8125 15.8125 C-14.37236572 14.96204102 -13.93223145 14.11158203 -13.47875977 13.23535156 C-13.05908936 12.44225586 -12.63941895 11.64916016 -12.20703125 10.83203125 C-11.8303833 10.11764893 -11.45373535 9.4032666 -11.06567383 8.66723633 C-10 7 -10 7 -8 6 C-9.875 11.75 -9.875 11.75 -11 14 C-10.62488281 13.49210938 -10.24976562 12.98421875 -9.86328125 12.4609375 C-6.692633 8.19613608 -3.44175544 4.04912405 0 0 Z M-14 17 C-13 19 -13 19 -13 19 Z M-15 19 C-14 21 -14 21 -14 21 Z M-16 21 C-15 23 -15 23 -15 23 Z " fill="#B0A39D" transform="translate(52,117)"/>
<path d="M0 0 C2.12955302 0.0100642 4.25911071 0.01918389 6.38867188 0.02734375 C11.53006676 0.04905173 16.6712293 0.08338583 21.8125 0.125 C21.8125 0.455 21.8125 0.785 21.8125 1.125 C20.44653687 1.16258423 20.44653687 1.16258423 19.05297852 1.20092773 C11.04778541 1.42412367 3.04335761 1.66360232 -4.9606781 1.92515564 C-9.27488843 2.06575141 -13.58915237 2.19342085 -17.90419006 2.30613708 C-26.58342122 2.60940182 -35.13152684 4.10315881 -43.6875 5.5 C-44.97744873 5.70915039 -46.26739746 5.91830078 -47.59643555 6.13378906 C-53.71515275 7.17822447 -59.50347419 8.39069156 -65.34130859 10.50488281 C-67.79719437 11.32979023 -70.17227821 11.6309703 -72.75 11.8125 C-73.59691406 11.87824219 -74.44382812 11.94398438 -75.31640625 12.01171875 C-75.93386719 12.04910156 -76.55132812 12.08648437 -77.1875 12.125 C-77.1875 11.465 -77.1875 10.805 -77.1875 10.125 C-77.8475 9.795 -78.5075 9.465 -79.1875 9.125 C-76.83494629 8.40113732 -75.00558108 8.1311441 -72.52734375 8.21484375 C-68.61787865 8.10967685 -65.11768803 7.21973523 -61.375 6.1875 C-55.62480815 4.66366286 -50.12563998 3.64588947 -44.1875 3.125 C-43.8575 2.795 -43.5275 2.465 -43.1875 2.125 C-28.83577911 -0.11304901 -14.48707894 -0.12090626 0 0 Z " fill="#222B2E" transform="translate(163.1875,126.875)"/>
<path d="M0 0 C-0.55027359 0.03900925 -1.10054718 0.07801849 -1.66749573 0.11820984 C-7.52805317 0.53701214 -13.38651369 0.97952655 -19.24438477 1.43432617 C-21.41485016 1.59993375 -23.58574796 1.75999147 -25.75708008 1.91381836 C-42.22444836 3.08596815 -58.76537027 4.87392177 -74.49438477 10.1784668 C-77.18106221 11.05936611 -78.3955783 11.00170065 -81 10 C-73.06033237 7.08731001 -65.25341273 5.11789349 -56.95703125 3.61328125 C-54.12511457 3.30804 -54.12511457 3.30804 -53 2 C-39.8449935 -0.20355733 -26.31225282 -1.1590324 -13 -1.8125 C-11.55149658 -1.89177734 -11.55149658 -1.89177734 -10.07373047 -1.97265625 C-9.18314941 -2.00875 -8.29256836 -2.04484375 -7.375 -2.08203125 C-6.59898437 -2.11530518 -5.82296875 -2.1485791 -5.0234375 -2.18286133 C-3 -2 -3 -2 0 0 Z " fill="#849195" transform="translate(204,92)"/>
<path d="M0 0 C2.9375 2.1875 2.9375 2.1875 3.875 4.4375 C3.895625 5.015 3.91625 5.5925 3.9375 6.1875 C3.2775 5.8575 2.6175 5.5275 1.9375 5.1875 C1.9375 4.5275 1.9375 3.8675 1.9375 3.1875 C-1.0325 2.6925 -1.0325 2.6925 -4.0625 2.1875 C-4.0625 1.5275 -4.0625 0.8675 -4.0625 0.1875 C-6.73637417 0.14058993 -9.38995527 0.14530193 -12.0625 0.1875 C-13.279375 0.1875 -14.49625 0.1875 -15.75 0.1875 C-20.08034263 1.49477325 -21.00926756 3.43143684 -23.1171875 7.27734375 C-23.42914062 7.90769531 -23.74109375 8.53804687 -24.0625 9.1875 C-24.3925 9.8475 -24.7225 10.5075 -25.0625 11.1875 C-25.62949607 17.42445676 -24.65483716 23.17358375 -23.0625 29.1875 C-26.0625 28.1875 -26.0625 28.1875 -27.75 25.25 C-29.97087873 19.53916899 -29.92880191 13.69014998 -27.9375 7.9375 C-24.96929734 3.5841361 -22.02073112 0.21112081 -17.3125 -2.25 C-11.28862218 -3.29259424 -5.47783165 -2.85162841 0 0 Z " fill="#476169" transform="translate(38.0625,41.8125)"/>
<path d="M0 0 C-0.33 1.65 -0.66 3.3 -1 5 C-1.598125 5.0825 -2.19625 5.165 -2.8125 5.25 C-5.12830733 5.80173301 -5.12830733 5.80173301 -6.25 7.8125 C-8.48509386 10.60636732 -10.86449768 11.50385948 -14.06640625 12.984375 C-16.49925324 14.26223403 -18.14206419 15.99914605 -20 18 C-20.66 18 -21.32 18 -22 18 C-22 18.66 -22 19.32 -22 20 C-23.65 19.67 -25.3 19.34 -27 19 C-27.33 18.01 -27.66 17.02 -28 16 C-26.68 16 -25.36 16 -24 16 C-22.2270867 14.2270867 -20.61959976 12.41112772 -19 10.5 C-15.05573702 5.84576968 -13.22444121 4.76440506 -7 4 C-6.01 3.67 -5.02 3.34 -4 3 C-4 2.34 -4 1.68 -4 1 C-2 0 -2 0 0 0 Z M-14 7 C-14.99 8.485 -14.99 8.485 -16 10 C-14.68 9.34 -13.36 8.68 -12 8 C-12.66 7.67 -13.32 7.34 -14 7 Z " fill="#6A8087" transform="translate(75,125)"/>
<path d="M0 0 C2.1519437 3.22791555 2.20086443 4.28400809 2 8 C-4.71884786 10.475365 -11.42465099 11.96278632 -18.44921875 13.25390625 C-21.75826476 13.94920635 -24.814413 14.87955216 -28 16 C-29.53953571 16.46544103 -31.08115765 16.92404949 -32.625 17.375 C-37.62680368 18.84745814 -42.5281842 20.56294503 -47.43359375 22.328125 C-50 23 -50 23 -53 22 C-45.41679311 18.29086346 -37.89493764 15.56624242 -29.75 13.375 C-28.66259521 13.07577637 -27.57519043 12.77655273 -26.45483398 12.46826172 C-19.21561189 10.50776229 -11.98018645 8.8228517 -4.59765625 7.5078125 C-2.02881092 7.12578189 -2.02881092 7.12578189 0 6 C0 4.02 0 2.04 0 0 Z " fill="#C4C4C4" transform="translate(181,71)"/>
<path d="M0 0 C2.44855081 6.42589223 4.59728233 12.8245833 6.2890625 19.4921875 C6.95074546 22.05476621 6.95074546 22.05476621 8.1484375 24.5703125 C9 27 9 27 8 31 C7.34 28.36 6.68 25.72 6 23 C5.34 23 4.68 23 4 23 C0.94525129 12.37562243 0.94525129 12.37562243 0.4375 7.9375 C0.28056299 4.88374462 0.28056299 4.88374462 -2 3 C-6.72549523 3.30236258 -11.39177929 4.59037368 -15.6875 6.5625 C-19.17496318 8.07592742 -22.23395425 8.61570962 -26 9 C-23.46405169 5.93062808 -20.87986688 5.09392409 -17.125 3.9375 C-14.13609709 3.0048724 -11.21571537 2.08975019 -8.32421875 0.88671875 C-5.45437524 -0.20816272 -3.04477928 -0.14161764 0 0 Z " fill="#BAB4B2" transform="translate(172,40)"/>
<path d="M0 0 C0.66 0.33 1.32 0.66 2 1 C1 3 1 3 -2.3125 4.5 C-7.14271486 6.77923024 -10.9857841 10.14781342 -14.9621582 13.64648438 C-18.80880103 17 -18.80880103 17 -21 17 C-21 17.66 -21 18.32 -21 19 C-22.93359375 20.65625 -22.93359375 20.65625 -25.4375 22.5 C-28.74856792 24.79910263 -28.74856792 24.79910263 -31 28 C-33.5625 28.625 -33.5625 28.625 -36 29 C-31.71823636 23.75483954 -27.17491903 19.35254818 -22 15 C-20.77036477 13.9380423 -19.54117379 12.87556993 -18.3125 11.8125 C-17.73757812 11.32523438 -17.16265625 10.83796875 -16.5703125 10.3359375 C-15.26025918 9.22141453 -13.9711284 8.08235776 -12.6875 6.9375 C-8.76321433 4.10836382 -4.51691002 1.75080229 0 0 Z " fill="#B6A59D" transform="translate(103,72)"/>
<path d="M0 0 C0 0.66 0 1.32 0 2 C-1.90549732 3.5752919 -3.81811143 5.04482366 -5.8125 6.5 C-11.50231594 10.73928591 -16.71788058 15.27470334 -21.85546875 20.1640625 C-24 22 -24 22 -26 22 C-26.33 22.99 -26.66 23.98 -27 25 C-28.62652316 26.70586575 -30.29006566 28.3777546 -32 30 C-32.66 29.67 -33.32 29.34 -34 29 C-32.53465606 23.62707221 -28.96128843 20.65059914 -25 17 C-24.01386719 16.06027344 -24.01386719 16.06027344 -23.0078125 15.1015625 C-18.85848447 11.27513937 -15.2128786 9.23409083 -10 7 C-7.80396312 5.22797024 -5.74579057 3.36781306 -3.69921875 1.42578125 C-2 0 -2 0 0 0 Z " fill="#949899" transform="translate(106,57)"/>
<path d="M0 0 C0.33 0.99 0.66 1.98 1 3 C0.34 3.66 -0.32 4.32 -1 5 C-1.37125 5.969375 -1.7425 6.93875 -2.125 7.9375 C-4.56852833 13.92036576 -8.81419937 19.95086133 -13.47973633 24.41625977 C-15.10430204 26.10865703 -16.12972541 27.74225619 -17.26171875 29.79296875 C-17.85629883 30.8612793 -17.85629883 30.8612793 -18.46289062 31.95117188 C-18.86701172 32.68916016 -19.27113281 33.42714844 -19.6875 34.1875 C-20.10322266 34.93708984 -20.51894531 35.68667969 -20.94726562 36.45898438 C-21.96937725 38.30348466 -22.9852981 40.1514131 -24 42 C-24.33 41.34 -24.66 40.68 -25 40 C-19.38341955 25.42725071 -9.40039202 12.32177021 0 0 Z " fill="#5C676B" transform="translate(57,100)"/>
<path d="M0 0 C2.97 0 5.94 0 9 0 C9.33 0.66 9.66 1.32 10 2 C7.03 2 4.06 2 1 2 C1 2.99 1 3.98 1 5 C0.21753906 5.40992188 -0.56492187 5.81984375 -1.37109375 6.2421875 C-2.38300781 6.78101563 -3.39492187 7.31984375 -4.4375 7.875 C-5.95150391 8.67550781 -5.95150391 8.67550781 -7.49609375 9.4921875 C-10.10140442 10.75654114 -10.10140442 10.75654114 -11 13 C-11.54147979 19.37280063 -11.51036307 24.46442747 -8 30 C-7.33333333 31.33333333 -6.66666667 32.66666667 -6 34 C-9.57756609 32.80747797 -10.40584869 31.34979169 -12.140625 28.09375 C-14.64146832 22.00078629 -14.51992365 16.07072516 -12 10 C-9.67464053 6.44645772 -7.13255436 3.37751812 -3 2 C-2.01 2 -1.02 2 0 2 C0 1.34 0 0.68 0 0 Z " fill="#ADBBBF" transform="translate(121,142)"/>
<path d="M0 0 C0.33 0.66 0.66 1.32 1 2 C0.57847656 2.59167969 0.15695313 3.18335937 -0.27734375 3.79296875 C-1.09912109 4.97826172 -1.09912109 4.97826172 -1.9375 6.1875 C-2.48277344 6.96480469 -3.02804688 7.74210937 -3.58984375 8.54296875 C-5.06963688 11.12133406 -5.4354249 13.10655261 -6 16 C-6.95914373 17.96876871 -7.9833923 19.90684171 -9.0625 21.8125 C-9.61035156 22.78832031 -10.15820312 23.76414062 -10.72265625 24.76953125 C-11.14417969 25.50558594 -11.56570312 26.24164063 -12 27 C-12.66 27 -13.32 27 -14 27 C-14.33 28.32 -14.66 29.64 -15 31 C-15.66 31 -16.32 31 -17 31 C-15.60425135 24.32607543 -12.92321612 18.59733993 -9.625 12.6875 C-9.24996338 12.00623047 -8.87492676 11.32496094 -8.48852539 10.62304688 C-6.09565636 6.44259113 -3.55808299 3.25005107 0 0 Z " fill="#507C89" transform="translate(56,66)"/>
<path d="M0 0 C1 2 1 2 0.36328125 4.06640625 C0.01652344 4.89011719 -0.33023438 5.71382813 -0.6875 6.5625 C-1.06003906 7.45582031 -1.43257812 8.34914063 -1.81640625 9.26953125 C-3.1999924 12.46136861 -4.61171487 15.63858922 -6.0703125 18.796875 C-7.20591256 21.48796085 -8.09213231 24.22338275 -9 27 C-9.47707821 28.36791766 -9.95640115 29.73505372 -10.4375 31.1015625 C-13.18209124 39.00574177 -15.61479003 46.54978489 -16.578125 54.91015625 C-16.71734375 55.59980469 -16.8565625 56.28945312 -17 57 C-17.99 57.495 -17.99 57.495 -19 58 C-18.51205533 51.21891203 -17.45525152 44.90256615 -15.5625 38.375 C-15.30952148 37.49344238 -15.05654297 36.61188477 -14.79589844 35.70361328 C-11.2212613 23.7833012 -6.93792778 10.40689167 0 0 Z " fill="#D3D4D4" transform="translate(41,89)"/>
<path d="M0 0 C0.66 0.33 1.32 0.66 2 1 C1.54625 1.53625 1.0925 2.0725 0.625 2.625 C-1.15981279 4.96941295 -1.15981279 4.96941295 -1.875 8 C-3.26036292 11.69430111 -4.90296845 12.60683925 -8 15 C-9.60435826 16.98791949 -11.09182899 19.04050551 -12.58984375 21.109375 C-14.21791453 23.29216241 -16.01085359 25.14346335 -18 27 C-19.11375 28.11375 -19.11375 28.11375 -20.25 29.25 C-20.8275 29.8275 -21.405 30.405 -22 31 C-18.66191432 21.63994066 -11.25632809 13.95229517 -4.98046875 6.41015625 C-3.25729799 4.31312202 -1.60781707 2.18602257 0 0 Z " fill="#A5B0B3" transform="translate(74,40)"/>
<path d="M0 0 C-1.22332031 0.38929688 -2.44664063 0.77859375 -3.70703125 1.1796875 C-18.4051096 6.00603189 -32.23350364 12.18503823 -45 21 C-45.66 20.67 -46.32 20.34 -47 20 C-38.7095958 13.99421658 -30.5017319 8.86511128 -21 5 C-20.03449219 4.58492187 -19.06898437 4.16984375 -18.07421875 3.7421875 C-17.01847656 3.29101562 -15.96273437 2.83984375 -14.875 2.375 C-13.38613281 1.73691406 -13.38613281 1.73691406 -11.8671875 1.0859375 C-7.4620417 -0.58249647 -4.54220078 -1.27124111 0 0 Z " fill="#C6C6C6" transform="translate(90,141)"/>
<path d="M0 0 C-0.99 0 -1.98 0 -3 0 C-3 0.66 -3 1.32 -3 2 C-4.01578125 2.4846875 -5.0315625 2.969375 -6.078125 3.46875 C-13.92254565 7.26807747 -21.28896691 11.2453475 -28.44921875 16.23828125 C-30.16728381 17.42487748 -31.92648671 18.55376217 -33.71875 19.625 C-35.83715169 20.90184485 -37.34911771 22.17534062 -39 24 C-39.66 23.67 -40.32 23.34 -41 23 C-39.3125 20.0625 -39.3125 20.0625 -37 17 C-35.33745661 16.64667529 -33.67019512 16.31517798 -32 16 C-29.78862435 14.69820427 -29.78862435 14.69820427 -27.625 13 C-23.22851119 9.80375927 -18.72081105 6.91706887 -14.0625 4.125 C-13.08627686 3.53525391 -13.08627686 3.53525391 -12.09033203 2.93359375 C-4.71434549 -1.46307274 -4.71434549 -1.46307274 0 0 Z " fill="#BFBEBE" transform="translate(106,105)"/>
<path d="M0 0 C2.87230371 1.1338041 3.84810343 2.28552174 5.375 4.9375 C5.375 5.5975 5.375 6.2575 5.375 6.9375 C2.9 6.4425 2.9 6.4425 0.375 5.9375 C0.375 4.9475 0.375 3.9575 0.375 2.9375 C-0.615 2.9375 -1.605 2.9375 -2.625 2.9375 C-2.851875 3.515 -3.07875 4.0925 -3.3125 4.6875 C-5.35981478 8.19718249 -7.83359335 10.34590374 -11.73046875 11.6328125 C-13.68217038 12.12332866 -15.65297751 12.53641068 -17.625 12.9375 C-14.89740035 9.09865605 -12.97510868 7.58348707 -8.625 5.9375 C-8.295 4.9475 -7.965 3.9575 -7.625 2.9375 C-4.95322307 0.85945128 -3.41712666 -0.08136016 0 0 Z " fill="#6C878F" transform="translate(121.625,0.0625)"/>
<path d="M0 0 C-1.051875 0.47179687 -1.051875 0.47179687 -2.125 0.953125 C-6.47761279 2.91653185 -10.81741818 4.87458308 -15.0625 7.0625 C-17.96161648 8.54755763 -20.88686536 9.73453197 -23.9375 10.875 C-28.49589183 12.62660427 -32.19210942 15.00424898 -36.08984375 17.92578125 C-36.72019531 18.28027344 -37.35054687 18.63476562 -38 19 C-38.99 18.67 -39.98 18.34 -41 18 C-31.9317658 10.87495884 -21.16477541 6.31408109 -10.5234375 2.04296875 C-8.02392045 1.0736398 -8.02392045 1.0736398 -5.9140625 -0.19921875 C-3.54066934 -1.19216895 -2.37894314 -0.84962255 0 0 Z " fill="#293438" transform="translate(85,140)"/>
<path d="M0 0 C0.66 0.33 1.32 0.66 2 1 C1.67 1.66 1.34 2.32 1 3 C0.34 3 -0.32 3 -1 3 C-1 3.66 -1 4.32 -1 5 C-3.64 5.33 -6.28 5.66 -9 6 C-9 6.66 -9 7.32 -9 8 C-10.57533086 8.86883706 -12.16064509 9.71959068 -13.75 10.5625 C-14.63171875 11.03816406 -15.5134375 11.51382813 -16.421875 12.00390625 C-19.20701188 13.07998186 -20.26980214 13.06528748 -23 12 C-21.68 11.67 -20.36 11.34 -19 11 C-19 10.34 -19 9.68 -19 9 C-16.39704724 7.68504458 -13.79271967 6.37295014 -11.1875 5.0625 C-10.44951172 4.68931641 -9.71152344 4.31613281 -8.95117188 3.93164062 C-8.23896484 3.57392578 -7.52675781 3.21621094 -6.79296875 2.84765625 C-6.1383667 2.51773682 -5.48376465 2.18781738 -4.80932617 1.84790039 C-3 1 -3 1 0 0 Z " fill="#859AA0" transform="translate(98,112)"/>
<path d="M0 0 C0.66 0.33 1.32 0.66 2 1 C-0.24277334 2.98791273 -2.49348754 4.9652902 -4.75 6.9375 C-5.70132812 7.78344727 -5.70132812 7.78344727 -6.671875 8.64648438 C-7.290625 9.18466797 -7.909375 9.72285156 -8.546875 10.27734375 C-9.11245117 10.77484131 -9.67802734 11.27233887 -10.26074219 11.78491211 C-12.16623313 13.11613452 -13.7295686 13.58027466 -16 14 C-16.34833144 9.12335991 -15.41685712 6.22949995 -13 2 C-12.67 2 -12.34 2 -12 2 C-12 4.31 -12 6.62 -12 9 C-11.484375 8.4225 -10.96875 7.845 -10.4375 7.25 C-7.49270825 4.53173069 -4.51278308 2.92208886 -1 1 C-0.67 0.67 -0.34 0.34 0 0 Z " fill="#2F3030" transform="translate(37,163)"/>
<path d="M0 0 C-0.9446814 0.55143677 -0.9446814 0.55143677 -1.90844727 1.11401367 C-4.79517113 2.80171436 -7.67884454 4.49456231 -10.5625 6.1875 C-11.55314453 6.76564453 -12.54378906 7.34378906 -13.56445312 7.93945312 C-17.8557545 10.46290942 -22.07618357 12.97563175 -26.08984375 15.92578125 C-29 18 -29 18 -31 18 C-29.76890786 14.30672358 -28.8163899 14.04529249 -25.5 12.1875 C-22.0292959 10.19505876 -18.67182271 8.14371946 -15.375 5.875 C-4.43320106 -1.47773369 -4.43320106 -1.47773369 0 0 Z " fill="#42332C" transform="translate(101,105)"/>
<path d="M0 0 C-3.2046083 1.80959941 -6.14814128 2.54058487 -9.76171875 3.18359375 C-11.44104492 3.49200195 -11.44104492 3.49200195 -13.15429688 3.80664062 C-15.49016192 4.22371327 -17.82609827 4.64038682 -20.16210938 5.05664062 C-26.02766722 6.13439911 -31.55923948 7.31667997 -37.10864258 9.53149414 C-39.39079336 10.09680295 -40.79292154 9.72914332 -43 9 C-35.06033237 6.08731001 -27.25341273 4.11789349 -18.95703125 2.61328125 C-16.12511457 2.30804 -16.12511457 2.30804 -15 1 C-9.9301448 0.06880211 -5.12881696 -0.08997924 0 0 Z " fill="#BFC2C3" transform="translate(166,93)"/>
<path d="M0 0 C0.33 0.66 0.66 1.32 1 2 C-5.27211896 9.79776952 -5.27211896 9.79776952 -9.26953125 10.265625 C-15.88274479 10.22499082 -20.68957987 10.00906099 -25.875 5.5 C-28 3 -28 3 -28 1 C-27.34 1 -26.68 1 -26 1 C-24.64613064 2.65002828 -23.31321858 4.3174387 -22 6 C-17.23146108 8.38426946 -10.49200028 7.31410532 -5.4375 6.25 C-2.6572014 4.82420585 -2.02676862 3.89362064 -1 1 C-0.67 0.67 -0.34 0.34 0 0 Z " fill="#2E3A3E" transform="translate(41,65)"/>
<path d="M0 0 C0.66 0 1.32 0 2 0 C2.33 2.64 2.66 5.28 3 8 C3.66 7.34 4.32 6.68 5 6 C6.09658936 9.28976808 5.79953138 10.71303767 5 14 C4.34 13.34 3.68 12.68 3 12 C1.11608215 15.26545761 0.50712033 18.28111761 0 22 C-0.33 22 -0.66 22 -1 22 C-1.0270817 19.27076612 -1.04687847 16.54180363 -1.0625 13.8125 C-1.07087891 13.04357422 -1.07925781 12.27464844 -1.08789062 11.48242188 C-1.10491934 7.51473211 -0.98604115 3.87428766 0 0 Z " fill="#556C73" transform="translate(21,155)"/>
<path d="M0 0 C0.6953125 1.7421875 0.6953125 1.7421875 1 4 C-1.32951009 7.8342868 -4.55620428 11.06348386 -8.3125 13.5 C-13.70874627 14.50395279 -18.90597919 14.91613411 -24 12.6875 C-26 11 -26 11 -28 8 C-27.19949219 8.32484375 -27.19949219 8.32484375 -26.3828125 8.65625 C-20.61020611 10.81348699 -15.15717385 12.10996671 -9 11 C-4.28843671 8.68381132 -1.9814434 4.73344813 0 0 Z " fill="#C3C3C3" transform="translate(43,63)"/>
<path d="M0 0 C2.9375 2.1875 2.9375 2.1875 3.875 4.4375 C3.895625 5.015 3.91625 5.5925 3.9375 6.1875 C3.2775 5.8575 2.6175 5.5275 1.9375 5.1875 C1.9375 4.5275 1.9375 3.8675 1.9375 3.1875 C-1.0325 2.6925 -1.0325 2.6925 -4.0625 2.1875 C-4.0625 1.5275 -4.0625 0.8675 -4.0625 0.1875 C-6.73649075 0.14058788 -9.38988025 0.14044684 -12.0625 0.1875 C-13.8259375 0.2184375 -13.8259375 0.2184375 -15.625 0.25 C-20.44443825 1.56439225 -22.87161828 4.47288693 -26.0625 8.1875 C-26.0625 4.74736207 -25.75189486 4.44532921 -23.4375 2.125 C-16.79227973 -4.08750825 -7.92574718 -4.12595481 0 0 Z " fill="#B9BDBE" transform="translate(38.0625,41.8125)"/>
<path d="M0 0 C-1.17578125 1.984375 -1.17578125 1.984375 -3 4 C-5.48046875 4.390625 -5.48046875 4.390625 -8.1875 4.25 C-9.08855469 4.21390625 -9.98960938 4.1778125 -10.91796875 4.140625 C-11.94857422 4.07101563 -11.94857422 4.07101563 -13 4 C-13 4.66 -13 5.32 -13 6 C-13.66 6 -14.32 6 -15 6 C-15 6.66 -15 7.32 -15 8 C-17.64 8 -20.28 8 -23 8 C-19.82482782 4.51090698 -16.40818868 3.35288606 -12.0625 1.75 C-11.34642578 1.46898438 -10.63035156 1.18796875 -9.89257812 0.8984375 C-6.14342592 -0.50532292 -3.81588167 -1.23198616 0 0 Z " fill="#749099" transform="translate(123,104)"/>
<path d="M0 0 C4.92307692 4.30769231 4.92307692 4.30769231 5.3125 7.8125 C5.209375 8.534375 5.10625 9.25625 5 10 C3.02 10.66 1.04 11.32 -1 12 C-1 12.66 -1 13.32 -1 14 C-1.53109375 14.25394531 -2.0621875 14.50789063 -2.609375 14.76953125 C-7.14991704 16.97797746 -7.14991704 16.97797746 -11.3125 19.8125 C-11.869375 20.204375 -12.42625 20.59625 -13 21 C-13.99 20.67 -14.98 20.34 -16 20 C-13.7516034 18.53914338 -11.50137827 17.08124864 -9.25 15.625 C-8.29867187 15.00625 -8.29867187 15.00625 -7.328125 14.375 C-4.28644824 12.41058376 -1.29809453 10.51579092 2 9 C1.67 8.2575 1.34 7.515 1 6.75 C0 4 0 4 0 0 Z " fill="#BDC1C2" transform="translate(139,24)"/>
<path d="M0 0 C0.66 0 1.32 0 2 0 C0.62731009 3.12782079 -0.92812643 5.07609002 -3.4375 7.375 C-6.52230362 10.3582463 -8.138698 13.11554365 -10 17 C-11.89750664 19.42841523 -13.9210609 21.72595012 -16 24 C-16.66 23.67 -17.32 23.34 -18 23 C-14.41518792 17.05675893 -10.23534183 11.71508243 -5.75 6.4375 C-5.21858398 5.80569824 -4.68716797 5.17389648 -4.13964844 4.52294922 C-2.80592529 2.97431535 -1.40782656 1.48158992 0 0 Z " fill="#4F3C33" transform="translate(46,142)"/>
<path d="M0 0 C4.21779303 1.50635465 5.7747674 4.24012422 8 8 C9.77739569 13.33218706 9.67853641 18.2728164 7.625 23.5 C6 26 6 26 4 27 C4.33 26.38125 4.66 25.7625 5 25.125 C7.14963115 18.40740266 6.72123406 12.80833883 3.5625 6.5 C2.72440923 4.99095906 1.87331611 3.48893239 1 2 C0.67 1.34 0.34 0.68 0 0 Z " fill="#CCCCCC" transform="translate(135,146)"/>
<path d="M0 0 C-0.33 1.65 -0.66 3.3 -1 5 C-1.598125 5.0825 -2.19625 5.165 -2.8125 5.25 C-5.15279112 5.80740394 -5.15279112 5.80740394 -6.3125 7.9375 C-8.72851245 10.89040411 -11.36908691 11.17790647 -15 12 C-12.78564172 7.57128343 -10.27698964 5.45699405 -6 3 C-5.34 3 -4.68 3 -4 3 C-4 2.34 -4 1.68 -4 1 C-2 0 -2 0 0 0 Z " fill="#5A818E" transform="translate(75,125)"/>
<path d="M0 0 C0 3.65725087 -1.04218764 4.95451411 -3 8 C-3.45375 8.78375 -3.9075 9.5675 -4.375 10.375 C-5.72731698 12.55951204 -7.10941682 14.69466323 -8.5625 16.8125 C-8.97628906 17.41707031 -9.39007813 18.02164063 -9.81640625 18.64453125 C-10.20699219 19.09183594 -10.59757812 19.53914063 -11 20 C-11.66 20 -12.32 20 -13 20 C-13.33 20.99 -13.66 21.98 -14 23 C-14.33 22.34 -14.66 21.68 -15 21 C-11.1687793 13.6274207 -5.89999943 5.89999943 0 0 Z " fill="#BBB0AB" transform="translate(52,117)"/>
<path d="M0 0 C0 0.66 0 1.32 0 2 C2.97 2.495 2.97 2.495 6 3 C6 3.66 6 4.32 6 5 C3.35652976 4.54683367 1.08148874 4.03645549 -1.375 2.9375 C-7.19639058 0.85843193 -12.35042142 2.15523965 -18 4 C-16.9375 2.0625 -16.9375 2.0625 -15 0 C-10.32398026 -1.05872145 -4.43486938 -2.21743469 0 0 Z " fill="#1E5F73" transform="translate(34,42)"/>
<path d="M0 0 C0.66 0 1.32 0 2 0 C-1 6 -1 6 -3.29296875 6.8359375 C-6.54842126 8.23582905 -8.04087965 9.92985721 -10.3125 12.625 C-11.35857422 13.85089844 -11.35857422 13.85089844 -12.42578125 15.1015625 C-12.94527344 15.72804687 -13.46476562 16.35453125 -14 17 C-14.99 16.67 -15.98 16.34 -17 16 C-14.1454011 12.17808442 -11.10685518 9.27484865 -7.375 6.3125 C-3.56498727 3.29292284 -3.56498727 3.29292284 0 0 Z " fill="#52443F" transform="translate(66,124)"/>
<path d="M0 0 C3 1 3 1 4.1875 2.9375 C5.3447237 7.29934317 5.15679528 11.5139128 5 16 C4.34 16 3.68 16 3 16 C2.67 16.66 2.34 17.32 2 18 C1.34 12.06 0.68 6.12 0 0 Z " fill="#708389" transform="translate(40,47)"/>
<path d="M0 0 C1.43774674 3.79782157 0.4869786 6.04731489 -0.9375 9.75 C-2.74714903 14.82447975 -3.41137357 18.65214363 -3 24 C-3.66 24 -4.32 24 -5 24 C-5.33 24.99 -5.66 25.98 -6 27 C-7.1528275 23.59842304 -6.8304192 21.50130795 -5.8203125 18.0859375 C-5.55089844 17.16039062 -5.28148438 16.23484375 -5.00390625 15.28125 C-4.71386719 14.3221875 -4.42382812 13.363125 -4.125 12.375 C-3.84269531 11.40820312 -3.56039063 10.44140625 -3.26953125 9.4453125 C-1.18375319 2.36750638 -1.18375319 2.36750638 0 0 Z " fill="#3D606B" transform="translate(31,116)"/>
<path d="M0 0 C9.73004484 -0.76681614 9.73004484 -0.76681614 12.84375 1.11328125 C14.1875 2.5 14.1875 2.5 16 5 C13 5 13 5 10 4 C8.27467737 3.77991948 6.54465967 3.59496906 4.8125 3.4375 C3.46091797 3.31181641 3.46091797 3.31181641 2.08203125 3.18359375 C1.05142578 3.09271484 1.05142578 3.09271484 0 3 C0 2.01 0 1.02 0 0 Z " fill="#125E76" transform="translate(122,144)"/>
<path d="M0 0 C2.57146057 2.57146057 2.80117997 4.6050417 3.625 8.125 C3.88539063 9.22070312 4.14578125 10.31640625 4.4140625 11.4453125 C4.70410156 12.70988281 4.70410156 12.70988281 5 14 C1.48886112 16.34075925 -0.8195491 16.70663502 -5 17 C-6.32 16.34 -7.64 15.68 -9 15 C-5.04 14.34 -1.08 13.68 3 13 C2.2575 10.89625 2.2575 10.89625 1.5 8.75 C0.34407525 5.47487986 0 3.58063513 0 0 Z " fill="#67493B" transform="translate(177,63)"/>
<path d="M0 0 C0 3.93851312 -1.54965972 6.07844043 -4 9 C-6.57545604 11.44766624 -9.25358444 13.74687267 -12 16 C-12 11.6853101 -9.69599708 9.16312528 -7 6 C-4.75767604 3.87813146 -2.42567804 1.90838647 0 0 Z " fill="#B9ACA6" transform="translate(66,101)"/>
<path d="M0 0 C0.33 0.99 0.66 1.98 1 3 C1.66 3 2.32 3 3 3 C3.19335938 3.73605469 3.38671875 4.47210938 3.5859375 5.23046875 C3.84632813 6.20628906 4.10671875 7.18210937 4.375 8.1875 C4.63023437 9.15042969 4.88546875 10.11335938 5.1484375 11.10546875 C5.92995579 13.99806387 5.92995579 13.99806387 7.1640625 16.61328125 C8 19 8 19 7 23 C6.34 20.36 5.68 17.72 5 15 C4.34 15 3.68 15 3 15 C2.49363393 13.25183142 1.99515381 11.50137737 1.5 9.75 C1.2215625 8.77546875 0.943125 7.8009375 0.65625 6.796875 C0 4 0 4 0 0 Z " fill="#AFA39E" transform="translate(173,48)"/>
<path d="M0 0 C0.66 0.66 1.32 1.32 2 2 C1.21625 2.556875 0.4325 3.11375 -0.375 3.6875 C-3.12973437 6.1142898 -3.8386537 7.60529542 -5 11 C-5.66 11.66 -6.32 12.32 -7 13 C-9.125 12.625 -9.125 12.625 -11 12 C-9.54234835 10.37438849 -8.08385614 8.74953066 -6.625 7.125 C-5.81289063 6.22007812 -5.00078125 5.31515625 -4.1640625 4.3828125 C-2.80923795 2.89103817 -1.42494565 1.42494565 0 0 Z " fill="#4F6F7A" transform="translate(47,144)"/>
<path d="M0 0 C-0.67280387 3.01388674 -1.63994264 5.73335697 -2.875 8.5625 C-3.20242187 9.32691406 -3.52984375 10.09132812 -3.8671875 10.87890625 C-5.00823633 13.01542181 -6.20432259 14.39415134 -8 16 C-5.81395349 5.53488372 -5.81395349 5.53488372 -4 1 C-2 0 -2 0 0 0 Z " fill="#D57D51" transform="translate(32,157)"/>
<path d="M0 0 C0.33 0.66 0.66 1.32 1 2 C0.04287109 2.72316406 0.04287109 2.72316406 -0.93359375 3.4609375 C-1.75988281 4.09257813 -2.58617188 4.72421875 -3.4375 5.375 C-4.26121094 6.00148438 -5.08492187 6.62796875 -5.93359375 7.2734375 C-8.08528092 8.83753904 -8.08528092 8.83753904 -9 11 C-11.5625 11.625 -11.5625 11.625 -14 12 C-9.97121781 6.7045931 -5.82530885 3.20835538 0 0 Z " fill="#A4897B" transform="translate(81,89)"/>
<path d="M0 0 C-0.33 0.66 -0.66 1.32 -1 2 C-5.30814844 3.01631395 -9.46391815 3.10751104 -13.875 3.0625 C-15.02742188 3.05347656 -16.17984375 3.04445312 -17.3671875 3.03515625 C-18.23601562 3.02355469 -19.10484375 3.01195312 -20 3 C-20 2.67 -20 2.34 -20 2 C-13.25846717 0.74158054 -6.86515862 -0.26404456 0 0 Z " fill="#BDBDBD" transform="translate(130,131)"/>
<path d="M0 0 C0.33 0.99 0.66 1.98 1 3 C-1.09679104 4.36695222 -3.2010938 5.71846991 -5.3125 7.0625 C-5.90740234 7.45244141 -6.50230469 7.84238281 -7.11523438 8.24414062 C-8.69609635 9.24211495 -10.34594712 10.12868696 -12 11 C-12.99 10.67 -13.98 10.34 -15 10 C-14.25234375 9.52949219 -13.5046875 9.05898438 -12.734375 8.57421875 C-11.74953125 7.95160156 -10.7646875 7.32898437 -9.75 6.6875 C-8.77546875 6.07261719 -7.8009375 5.45773438 -6.796875 4.82421875 C-4.45266287 3.29524241 -2.21215968 1.71179023 0 0 Z " fill="#2A363A" transform="translate(141,30)"/>
<path d="M0 0 C0.66 0.33 1.32 0.66 2 1 C1.319375 1.804375 1.319375 1.804375 0.625 2.625 C-1.16262117 4.99451839 -1.16262117 4.99451839 -2 8.125 C-3 11 -3 11 -6 13 C-6.46557346 9.81858133 -6.50963377 7.74656877 -4.6640625 5.04296875 C-3.15741976 3.3064392 -1.62063536 1.630282 0 0 Z " fill="#7998A2" transform="translate(74,40)"/>
<path d="M0 0 C0.8971875 0.309375 0.8971875 0.309375 1.8125 0.625 C-4.8675221 4.47667232 -10.45192661 6.44395467 -18.1875 6.625 C-15.74740473 4.18490473 -14.07588914 3.93770067 -10.75 3.125 C-7.19695921 2.25448135 -3.32133348 -0.56937145 0 0 Z " fill="#CF5B21" transform="translate(162.1875,44.375)"/>
<path d="M0 0 C0.66 0.33 1.32 0.66 2 1 C-2.75108017 5.72138592 -6.38074056 7.83872641 -13 9 C-10.1332514 4.58042925 -7.55294801 3.12450289 -2.70703125 1.578125 C-0.98915317 1.13679224 -0.98915317 1.13679224 0 0 Z " fill="#497E8E" transform="translate(117,4)"/>
<path d="M0 0 C0.66 0.33 1.32 0.66 2 1 C-1.19990508 3.74277578 -4.00499382 5.6302836 -8 7 C-8 7.66 -8 8.32 -8 9 C-10.375 10.6875 -10.375 10.6875 -13 12 C-13.66 11.67 -14.32 11.34 -15 11 C-12.87657342 9.35210134 -10.7513551 7.70661212 -8.625 6.0625 C-8.02171875 5.59392578 -7.4184375 5.12535156 -6.796875 4.64257812 C-2.2265625 1.11328125 -2.2265625 1.11328125 0 0 Z " fill="#CDCCCD" transform="translate(121,45)"/>
<path d="M0 0 C-3.3730619 2.96829447 -6.62968884 4.06350475 -11 5 C-13.21875 4.546875 -13.21875 4.546875 -15 4 C-13.58521865 3.35004703 -12.16808513 2.70521278 -10.75 2.0625 C-9.96109375 1.70285156 -9.1721875 1.34320313 -8.359375 0.97265625 C-2.71143376 -1.35571688 -2.71143376 -1.35571688 0 0 Z " fill="#AFA6A1" transform="translate(161,44)"/>
<path d="M0 0 C0.33 0.99 0.66 1.98 1 3 C-4.14285714 7.42857143 -4.14285714 7.42857143 -8 8 C-8 5 -8 5 -6.25 2.875 C-4.04025476 1.03354564 -2.79909134 0.39987019 0 0 Z " fill="#125D75" transform="translate(36,161)"/>
<path d="M0 0 C0.99 0.33 1.98 0.66 3 1 C2.05125 1.7425 1.1025 2.485 0.125 3.25 C-2.39865722 5.33142757 -3.57785092 7.05411976 -5 10 C-7.125 11.25 -7.125 11.25 -9 12 C-7.54718935 6.67302761 -3.91888622 3.63597198 0 0 Z " fill="#C8C9C9" transform="translate(61,130)"/>
<path d="M0 0 C0.66 0.33 1.32 0.66 2 1 C-2.0480028 4.70068895 -5.827419 7.95502612 -11 10 C-11.66 9.67 -12.32 9.34 -13 9 C-7.25 5 -7.25 5 -5 5 C-5 4.34 -5 3.68 -5 3 C-2.625 1.3125 -2.625 1.3125 0 0 Z " fill="#B9B3B0" transform="translate(111,65)"/>
<path d="M0 0 C0.66 0 1.32 0 2 0 C1.67825238 3.20638144 1.29628532 4.68954964 -0.9609375 7.0546875 C-1.75757812 7.65539063 -2.55421875 8.25609375 -3.375 8.875 C-4.56222656 9.79925781 -4.56222656 9.79925781 -5.7734375 10.7421875 C-6.50820312 11.15726563 -7.24296875 11.57234375 -8 12 C-8.99 11.67 -9.98 11.34 -11 11 C-9.54634731 9.82750647 -8.08692581 8.66216184 -6.625 7.5 C-5.40683594 6.52546875 -5.40683594 6.52546875 -4.1640625 5.53125 C-2 4 -2 4 0 4 C0 2.68 0 1.36 0 0 Z " fill="#2E4147" transform="translate(101,55)"/>
<path d="M0 0 C0.94202499 2.82607497 0.97328822 4.8280652 0.875 7.875 C0.80724567 11.91767474 1.95637924 14.48497229 4 18 C4.33 18.99 4.66 19.98 5 21 C2 20 2 20 0.3125 17.0625 C-1.83934318 11.62092797 -1.83820587 5.5146176 0 0 Z " fill="#DFDFDF" transform="translate(10,50)"/>
<path d="M0 0 C0.81210938 0.33837891 0.81210938 0.33837891 1.640625 0.68359375 C0.650625 0.68359375 -0.339375 0.68359375 -1.359375 0.68359375 C-1.359375 1.34359375 -1.359375 2.00359375 -1.359375 2.68359375 C-2.7911366 3.38296577 -4.23004532 4.06772093 -5.671875 4.74609375 C-6.87263672 5.32037109 -6.87263672 5.32037109 -8.09765625 5.90625 C-10.359375 6.68359375 -10.359375 6.68359375 -13.359375 5.68359375 C-11.61814951 4.64786479 -9.86600905 3.63046855 -8.109375 2.62109375 C-6.64757812 1.76837891 -6.64757812 1.76837891 -5.15625 0.8984375 C-2.359375 -0.31640625 -2.359375 -0.31640625 0 0 Z " fill="#C7C7C7" transform="translate(104.359375,104.31640625)"/>
<path d="M0 0 C0.66 0.33 1.32 0.66 2 1 C-1.3 3.64 -4.6 6.28 -8 9 C-8.99 8.34 -9.98 7.68 -11 7 C-10.28972656 6.57847656 -9.57945313 6.15695313 -8.84765625 5.72265625 C-7.92855469 5.17480469 -7.00945313 4.62695312 -6.0625 4.0625 C-5.14597656 3.51722656 -4.22945312 2.97195312 -3.28515625 2.41015625 C-1.11587323 1.19267827 -1.11587323 1.19267827 0 0 Z " fill="#2E3E42" transform="translate(37,163)"/>
<path d="M0 0 C0.99 0.33 1.98 0.66 3 1 C-1.43076923 6.78461538 -1.43076923 6.78461538 -4.3125 7.875 C-4.869375 7.91625 -5.42625 7.9575 -6 8 C-3.375 2.25 -3.375 2.25 0 0 Z " fill="#787F82" transform="translate(42,159)"/>
<path d="M0 0 C0.33 0.66 0.66 1.32 1 2 C-0.37393005 5.66381347 -1.1447677 7.56243929 -4.6875 9.375 C-5.450625 9.58125 -6.21375 9.7875 -7 10 C-5.33248852 6.05860922 -2.77289351 3.2107188 0 0 Z " fill="#B05B31" transform="translate(56,114)"/>
<path d="M0 0 C0.33 0.66 0.66 1.32 1 2 C0.07265428 3.48555383 -0.86724813 4.96327506 -1.8125 6.4375 C-2.59560547 7.67306641 -2.59560547 7.67306641 -3.39453125 8.93359375 C-5 11 -5 11 -8 12 C-6.71999898 6.99635967 -4.82671924 4.43423522 -1 1 C-0.67 0.67 -0.34 0.34 0 0 Z " fill="#7E9197" transform="translate(56,66)"/>
<path d="M0 0 C0.598125 0.639375 1.19625 1.27875 1.8125 1.9375 C3.90810337 4.20310389 3.90810337 4.20310389 7 5 C7 6.65 7 8.3 7 10 C6.566875 9.525625 6.13375 9.05125 5.6875 8.5625 C3.97690387 6.76313043 3.97690387 6.76313043 1 6 C-0.1875 3.4375 -0.1875 3.4375 -1 1 C-0.67 0.67 -0.34 0.34 0 0 Z " fill="#A6B3B8" transform="translate(127,7)"/>
<path d="M0 0 C1.13732426 3.40401948 0.83989957 5.77456664 0.0625 9.25 C-0.13214844 10.14203125 -0.32679687 11.0340625 -0.52734375 11.953125 C-0.68332031 12.62859375 -0.83929688 13.3040625 -1 14 C-1.33 14 -1.66 14 -2 14 C-2.05410687 12.22950311 -2.09284119 10.45853151 -2.125 8.6875 C-2.14820312 7.70136719 -2.17140625 6.71523437 -2.1953125 5.69921875 C-2 3 -2 3 0 0 Z " fill="#3D616D" transform="translate(111,152)"/>
<path d="M0 0 C0.66 0.33 1.32 0.66 2 1 C0.74189735 3.51620531 -0.30353155 3.80835636 -2.8125 5 C-3.49957031 5.33 -4.18664062 5.66 -4.89453125 6 C-5.58933594 6.33 -6.28414063 6.66 -7 7 C-8.33471359 7.66389899 -9.66846683 8.3297451 -11 9 C-11 7 -11 7 -9.4375 5.0625 C-6.38176397 2.4768772 -3.77663062 1.32881448 0 0 Z " fill="#966A55" transform="translate(103,72)"/>
<path d="M0 0 C0.2475 0.556875 0.495 1.11375 0.75 1.6875 C2.89755857 5.66048336 5.23918048 8.49278699 9 11 C9 11.66 9 12.32 9 13 C5.44996731 12.01387981 4.06604107 11.08032022 1.6875 8.1875 C0.01384216 5.02614631 -0.4106003 3.49010259 0 0 Z " fill="#3D474B" transform="translate(110,164)"/>
<path d="M0 0 C1.36511719 0.29197266 1.36511719 0.29197266 2.7578125 0.58984375 C3.45648438 0.74582031 4.15515625 0.90179688 4.875 1.0625 C4.875 1.3925 4.875 1.7225 4.875 2.0625 C1.575 2.3925 -1.725 2.7225 -5.125 3.0625 C-5.125 2.4025 -5.125 1.7425 -5.125 1.0625 C-5.785 0.7325 -6.445 0.4025 -7.125 0.0625 C-4.4030754 -1.2984623 -2.9418043 -0.64116248 0 0 Z " fill="#1D4551" transform="translate(91.125,135.9375)"/>
<path d="M0 0 C-0.33 0.66 -0.66 1.32 -1 2 C-1.66 2 -2.32 2 -3 2 C-3 2.66 -3 3.32 -3 4 C-5.64 4 -8.28 4 -11 4 C-8.32997607 0.73663741 -4.08378642 -2.04189321 0 0 Z " fill="#8BA0A6" transform="translate(111,108)"/>
<path d="M0 0 C0.66 0 1.32 0 2 0 C1.55530671 5.03985731 -0.71343362 7.37634988 -4 11 C-4 7.80389448 -3.45328458 6.58282374 -2 3.8125 C-1.62875 3.09707031 -1.2575 2.38164063 -0.875 1.64453125 C-0.441875 0.83048828 -0.441875 0.83048828 0 0 Z " fill="#919798" transform="translate(60,96)"/>
<path d="M0 0 C3.36370321 1.39187719 5.21906331 2.79431396 7 6 C7.1875 9.25 7.1875 9.25 7 12 C4.47384158 8.87237529 2.73201988 5.62149612 1 2 C0.67 1.34 0.34 0.68 0 0 Z " fill="#959FA2" transform="translate(135,146)"/>
<path d="M0 0 C-1.32 0.33 -2.64 0.66 -4 1 C-4 1.66 -4 2.32 -4 3 C-7.69541586 3.95024979 -10.30458414 3.95024979 -14 3 C-14 2.67 -14 2.34 -14 2 C-9.15758367 0.66416101 -5.06562383 -0.25328119 0 0 Z " fill="#205D70" transform="translate(162,95)"/>
<path d="M0 0 C1.32 0 2.64 0 4 0 C2.768606 3.69418201 0.79208646 5.35109746 -2 8 C-2.66 7.67 -3.32 7.34 -4 7 C-2.92598892 4.08482708 -2.22189824 2.22189824 0 0 Z " fill="#8E9598" transform="translate(76,79)"/>
<path d="M0 0 C0.886875 0.103125 1.77375 0.20625 2.6875 0.3125 C1.04639552 3.59470895 -2.00572988 4.05820789 -5.3125 5.3125 C-6.3025 5.3125 -7.2925 5.3125 -8.3125 5.3125 C-4.12788462 0.38942308 -4.12788462 0.38942308 0 0 Z " fill="#A5897C" transform="translate(119.3125,61.6875)"/>
<path d="M0 0 C4.95 0 9.9 0 15 0 C15 0.33 15 0.66 15 1 C13.71802734 1.09087891 13.71802734 1.09087891 12.41015625 1.18359375 C10.75306641 1.30927734 10.75306641 1.30927734 9.0625 1.4375 C7.96035156 1.51871094 6.85820313 1.59992188 5.72265625 1.68359375 C3.08890097 1.70418084 3.08890097 1.70418084 2 3 C0.33382885 3.04063832 -1.33388095 3.042721 -3 3 C-2.01 2.67 -1.02 2.34 0 2 C0 1.34 0 0.68 0 0 Z " fill="#0B5369" transform="translate(117,128)"/>
<path d="M0 0 C0.93045933 2.55144824 1.08564091 3.74006478 0.22265625 6.359375 C-0.16019531 7.14828125 -0.54304688 7.9371875 -0.9375 8.75 C-1.50791016 9.94882813 -1.50791016 9.94882813 -2.08984375 11.171875 C-2.39019531 11.77515625 -2.69054688 12.3784375 -3 13 C-3.93045933 10.44855176 -4.08564091 9.25993522 -3.22265625 6.640625 C-2.83980469 5.85171875 -2.45695312 5.0628125 -2.0625 4.25 C-1.68222656 3.45078125 -1.30195312 2.6515625 -0.91015625 1.828125 C-0.60980469 1.22484375 -0.30945312 0.6215625 0 0 Z " fill="#305E6D" transform="translate(37,101)"/>
<path d="M0 0 C-0.33 1.65 -0.66 3.3 -1 5 C-2.98 5 -4.96 5 -7 5 C-6.67 4.34 -6.34 3.68 -6 3 C-5.34 3 -4.68 3 -4 3 C-4 2.34 -4 1.68 -4 1 C-2 0 -2 0 0 0 Z " fill="#78969F" transform="translate(75,125)"/>
<path d="M0 0 C-2.93828597 2.50298434 -5.17902761 3.46930939 -9 4 C-8.34 3.67 -7.68 3.34 -7 3 C-6.67 2.01 -6.34 1.02 -6 0 C-3.50907189 -1.24546405 -2.58919267 -0.7767578 0 0 Z " fill="#185F76" transform="translate(106,112)"/>
<path d="M0 0 C0 0.66 0 1.32 0 2 C-6.96428571 4.27678571 -6.96428571 4.27678571 -11 3 C-9.73160474 2.49384702 -8.46016898 1.99530901 -7.1875 1.5 C-6.12595703 1.08234375 -6.12595703 1.08234375 -5.04296875 0.65625 C-3 0 -3 0 0 0 Z " fill="#E85B13" transform="translate(180,74)"/>
<path d="M0 0 C0.33 1.32 0.66 2.64 1 4 C-0.9375 6.75 -0.9375 6.75 -3 9 C-3.66 8.67 -4.32 8.34 -5 8 C-3.35 5.36 -1.7 2.72 0 0 Z " fill="#483228" transform="translate(33,157)"/>
<path d="M0 0 C2.8125 0.1875 2.8125 0.1875 6 1 C7.875 3.5625 7.875 3.5625 9 6 C7.02 5.34 5.04 4.68 3 4 C3 3.34 3 2.68 3 2 C2.01 1.67 1.02 1.34 0 1 C0 0.67 0 0.34 0 0 Z " fill="#54737D" transform="translate(129,144)"/>
<path d="M0 0 C0.66 0.66 1.32 1.32 2 2 C-0.64 4.31 -3.28 6.62 -6 9 C-6 6 -6 6 -4.6875 4.39453125 C-4.130625 3.87246094 -3.57375 3.35039062 -3 2.8125 C-2.443125 2.28269531 -1.88625 1.75289062 -1.3125 1.20703125 C-0.6628125 0.60955078 -0.6628125 0.60955078 0 0 Z " fill="#C7C7C7" transform="translate(47,144)"/>
<path d="M0 0 C1.093125 0.226875 2.18625 0.45375 3.3125 0.6875 C-0.0894487 2.78100689 -2.74022412 2.86692163 -6.6875 2.6875 C-4.58035839 -0.41123767 -3.86755884 -0.32775922 0 0 Z " fill="#2B3C42" transform="translate(99.6875,134.3125)"/>
<path d="M0 0 C0.33 0.66 0.66 1.32 1 2 C0.67 2.99 0.34 3.98 0 5 C-0.66 5 -1.32 5 -2 5 C-2 5.66 -2 6.32 -2 7 C-3.32 6.67 -4.64 6.34 -6 6 C-4.02 4.02 -2.04 2.04 0 0 Z " fill="#215E72" transform="translate(81,35)"/>
<path d="M0 0 C-0.625 1.875 -0.625 1.875 -2 4 C-5.125 5.25 -5.125 5.25 -8 6 C-7.67 5.34 -7.34 4.68 -7 4 C-6.34 4 -5.68 4 -5 4 C-4.67 3.01 -4.34 2.02 -4 1 C-2 0 -2 0 0 0 Z " fill="#8E9CA1" transform="translate(118,2)"/>
<path d="M0 0 C0.66 0.33 1.32 0.66 2 1 C0.26440562 4.057952 -1.38472619 6.63379989 -4 9 C-3.46930939 5.17902761 -2.50298434 2.93828597 0 0 Z " fill="#504641" transform="translate(38,151)"/>
</svg>
