<?xml version="1.0" standalone="no"?>
<!DOCTYPE svg PUBLIC "-//W3C//DTD SVG 20010904//EN"
 "http://www.w3.org/TR/2001/REC-SVG-20010904/DTD/svg10.dtd">
<svg version="1.0" xmlns="http://www.w3.org/2000/svg"
 width="236.000000pt" height="208.000000pt" viewBox="0 0 236.000000 208.000000"
 preserveAspectRatio="xMidYMid meet">

<g transform="translate(0.000000,208.000000) scale(0.100000,-0.100000)"
fill="#000000" stroke="none">
<path d="M1070 1967 c-446 -370 -724 -810 -830 -1312 -25 -119 -39 -345 -21
-345 6 0 44 27 84 61 259 219 591 351 1012 405 144 18 536 22 640 6 39 -6 64
-6 73 0 16 14 17 363 1 374 -16 9 -185 5 -294 -7 -521 -59 -926 -236 -1297
-569 -92 -82 -65 -42 50 74 217 221 510 395 892 531 59 21 252 75 375 104 28
7 53 15 57 19 7 7 -94 348 -107 360 -3 4 -43 -7 -88 -22 -282 -99 -552 -248
-762 -421 -241 -199 -415 -414 -545 -674 -23 -45 -44 -81 -46 -78 -7 7 56 168
96 247 178 353 529 710 948 965 61 37 112 75 112 82 0 13 -68 117 -164 251
-21 28 -43 52 -50 52 -6 0 -68 -47 -136 -103z m-440 -981 c0 -3 -4 -8 -10 -11
-5 -3 -10 -1 -10 4 0 6 5 11 10 11 6 0 10 -2 10 -4z m-345 -560 c-1 -24 -33
-81 -41 -73 -2 2 1 19 7 38 6 19 12 40 15 47 6 21 20 13 19 -12z"/>
<path d="M194 1652 c-103 -65 -120 -193 -36 -277 84 -84 214 -59 263 49 25 55
24 103 -3 156 -32 61 -66 83 -135 87 -45 3 -65 0 -89 -15z"/>
<path d="M1200 633 c-88 -36 -134 -147 -96 -236 18 -43 78 -95 120 -102 108
-21 196 60 196 178 0 59 -23 104 -72 140 -27 21 -118 33 -148 20z"/>
</g>
</svg>
